<svg width="40" height="40" viewBox="0 0 40 40" fill="none" xmlns="http://www.w3.org/2000/svg">
<rect width="40" height="40" rx="8" fill="white" fill-opacity="0.1"/>
<g opacity="0.6">
<path fill-rule="evenodd" clip-rule="evenodd" d="M14.0991 18.1548L15.4325 15.8454L15.6285 15.9586C16.9618 16.7284 18.6285 15.7661 18.6285 14.2265L18.6285 14.0001L21.2952 14.0001L21.2952 14.2266C21.2952 15.7662 22.9618 16.7285 24.2952 15.9587L24.4914 15.8454L25.8247 18.1548L25.6286 18.268C24.2952 19.0378 24.2953 20.9623 25.6286 21.7321L25.8248 21.8454L24.4914 24.1548L24.2952 24.0415C22.9618 23.2717 21.2952 24.2339 21.2952 25.7735L21.2952 26.0001L18.6285 26.0001L18.6285 25.7736C18.6285 24.234 16.9618 23.2718 15.6285 24.0416L15.4324 24.1548L14.0991 21.8454L14.2953 21.7321C15.6286 20.9623 15.6286 19.0378 14.2953 18.268L14.0991 18.1548ZM14.6111 14.6014C14.7952 14.2825 15.2029 14.1733 15.5218 14.3574L16.2952 14.8039C16.7396 15.0605 17.2952 14.7397 17.2952 14.2265L17.2952 13.3334C17.2952 12.9652 17.5936 12.6667 17.9618 12.6667L21.9618 12.6667C22.33 12.6667 22.6285 12.9652 22.6285 13.3334L22.6285 14.2266C22.6285 14.7398 23.1841 15.0606 23.6285 14.804L24.4021 14.3574C24.7209 14.1733 25.1287 14.2825 25.3127 14.6014L27.3127 18.0655C27.4968 18.3843 27.3876 18.7921 27.0687 18.9762L26.2953 19.4227C25.8508 19.6793 25.8508 20.3208 26.2953 20.5774L27.0688 21.024C27.3876 21.2081 27.4969 21.6158 27.3128 21.9347L25.3128 25.3988C25.1287 25.7177 24.721 25.8269 24.4021 25.6428L23.6285 25.1962C23.1841 24.9396 22.6285 25.2603 22.6285 25.7735L22.6285 26.6667C22.6285 27.0349 22.33 27.3334 21.9618 27.3334L17.9618 27.3334C17.5936 27.3334 17.2952 27.0349 17.2952 26.6667L17.2952 25.7736C17.2952 25.2604 16.7396 24.9397 16.2952 25.1963L15.5217 25.6428C15.2029 25.8269 14.7951 25.7177 14.611 25.3988L12.611 21.9347C12.4269 21.6158 12.5362 21.2081 12.8551 21.024L13.6286 20.5774C14.073 20.3208 14.073 19.6793 13.6286 19.4227L12.8551 18.9762C12.5362 18.7921 12.427 18.3843 12.6111 18.0655L14.6111 14.6014ZM20.0191 21.3334C19.3022 21.3334 18.7048 20.7455 18.7048 20.0001C18.7048 19.2547 19.3022 18.6667 20.0191 18.6667C20.736 18.6667 21.3334 19.2547 21.3334 20.0001C21.3334 20.7455 20.736 21.3334 20.0191 21.3334ZM20.0191 22.6667C18.5568 22.6667 17.3714 21.4728 17.3714 20.0001C17.3714 18.5273 18.5568 17.3334 20.0191 17.3334C21.4813 17.3334 22.6667 18.5273 22.6667 20.0001C22.6667 21.4728 21.4813 22.6667 20.0191 22.6667Z" fill="white"/>
</g>
</svg>
