<svg width="41" height="40" viewBox="0 0 41 40" fill="none" xmlns="http://www.w3.org/2000/svg">
<path d="M0.5 8C0.5 3.58172 4.08172 0 8.5 0H32.5C36.9183 0 40.5 3.58172 40.5 8V32C40.5 36.4183 36.9183 40 32.5 40H8.5C4.08172 40 0.5 36.4183 0.5 32V8Z" fill="white" fill-opacity="0.1"/>
<path fill-rule="evenodd" clip-rule="evenodd" d="M20.0794 12.2655C20.3129 12.0358 20.6875 12.0358 20.921 12.2655L28.121 19.3482C28.3572 19.5806 28.3603 19.9605 28.1279 20.1967C27.8955 20.4329 27.5157 20.4361 27.2794 20.2037L26.3335 19.2732V25.3333C26.3335 25.6094 26.1097 25.8333 25.8335 25.8333H15.1669C14.8907 25.8333 14.6669 25.6094 14.6669 25.3333V19.2732L13.721 20.2037C13.4847 20.4361 13.1048 20.4329 12.8725 20.1967C12.6401 19.9605 12.6432 19.5806 12.8794 19.3482L20.0794 12.2655ZM20.5002 13.5349L25.3335 18.2895V24.8333H23.1335V21.0666C23.1335 20.7905 22.9097 20.5666 22.6335 20.5666H19.4335C19.1574 20.5666 18.9335 20.7905 18.9335 21.0666V24.8333H15.6669L15.6669 18.2895L20.5002 13.5349ZM19.9335 24.8333H22.1335V21.5666H19.9335V24.8333Z" fill="white"/>
</svg>
