<svg width="24" height="24" viewBox="0 0 24 24" fill="none" xmlns="http://www.w3.org/2000/svg">
<path fill-rule="evenodd" clip-rule="evenodd" d="M11.9978 1C10.0763 1 8.46686 1.63966 7.422 2.98722C6.58798 4.06284 6.2 5.45982 6.2 7.0132V7.5132H8.2V7.0132C8.2 5.78126 8.50689 4.85197 9.00254 4.21273C9.57705 3.47179 10.528 3 11.9978 3C13.3279 3 14.241 3.40931 14.8277 4.0348C15.4231 4.66958 15.8 5.65271 15.8 7.01762V10.6H4.5C3.67157 10.6 3 11.2716 3 12.1V22.3C3 23.1284 3.67157 23.8 4.5 23.8H19.5C20.3284 23.8 21 23.1284 21 22.3V12.1C21 11.2716 20.3284 10.6 19.5 10.6H17.8V7.01762C17.8 5.29451 17.3202 3.76868 16.2864 2.66654C15.2438 1.55505 13.7555 1 11.9978 1ZM5 21.8V12.6L19 12.6V21.8L5 21.8Z" fill="#008CF4"/>
</svg>
