<svg width="24" height="24" viewBox="0 0 24 24" fill="none" xmlns="http://www.w3.org/2000/svg">
<path fill-rule="evenodd" clip-rule="evenodd" d="M1.29999 3.5C0.747703 3.5 0.299988 3.94772 0.299988 4.5V19.5C0.299988 20.0523 0.747702 20.5 1.29999 20.5H22.7C23.2523 20.5 23.7 20.0523 23.7 19.5V4.5C23.7 3.94772 23.2523 3.5 22.7 3.5H1.29999ZM1.29999 4.5H22.7V6.66444C22.5537 6.5335 22.3328 6.50965 22.1589 6.62005L12 13.067L1.84111 6.62005C1.66715 6.50965 1.4463 6.5335 1.29999 6.66444V4.5ZM1.29999 7.3355V19.5H22.7L22.7 7.3355C22.6819 7.35164 22.6623 7.36653 22.6411 7.37995L12.2411 13.9799C12.0939 14.0734 11.906 14.0734 11.7589 13.9799L1.35887 7.37995C1.33773 7.36653 1.31808 7.35164 1.29999 7.3355Z" fill="#008CF4"/>
</svg>
