<svg width="24" height="24" viewBox="0 0 24 24" fill="none" xmlns="http://www.w3.org/2000/svg">
<path fill-rule="evenodd" clip-rule="evenodd" d="M11.9978 0.299988C10.1889 0.299988 8.74424 0.897903 7.81713 2.09358C7.06776 3.06005 6.7 4.34007 6.7 5.81319H7.7C7.7 4.50078 8.02722 3.45461 8.6074 2.70634C9.29931 1.81399 10.4147 1.29999 11.9978 1.29999C13.4351 1.29999 14.4918 1.74587 15.1923 2.49272C15.8973 3.24423 16.3 4.36296 16.3 5.81761V9.89999H4.5C3.94772 9.89999 3.5 10.3477 3.5 10.9V21.1C3.5 21.6523 3.94772 22.1 4.5 22.1H19.5C20.0523 22.1 20.5 21.6523 20.5 21.1V10.9C20.5 10.3477 20.0523 9.89999 19.5 9.89999H17.3V5.81761C17.3 4.18387 16.8458 2.79379 15.9217 1.80859C14.9932 0.818725 13.6488 0.299988 11.9978 0.299988ZM4.5 10.9L19.5 10.9V21.1L4.5 21.1V10.9Z" fill="#008CF4"/>
</svg>
