<svg width="41" height="40" viewBox="0 0 41 40" fill="none" xmlns="http://www.w3.org/2000/svg">
<path d="M0.25 8C0.25 3.58172 3.83172 0 8.25 0H32.25C36.6683 0 40.25 3.58172 40.25 8V32C40.25 36.4183 36.6683 40 32.25 40H8.25C3.83172 40 0.25 36.4183 0.25 32V8Z" fill="white" fill-opacity="0.1"/>
<path fill-rule="evenodd" clip-rule="evenodd" d="M14.4367 16.0395C15.306 14.6694 17.0538 12.6934 20.17 12.6934C24.5871 12.6934 27.3967 16.3209 27.3967 19.92C27.3967 23.5191 24.5871 27.1467 20.17 27.1467C18.0594 27.1467 16.2993 26.3109 15.0461 25.0358C14.3756 24.3535 13.8522 23.5478 13.4954 22.6809C13.3553 22.3404 13.5177 21.9508 13.8582 21.8107C14.1987 21.6706 14.5883 21.833 14.7284 22.1735C15.0216 22.8859 15.4508 23.5454 15.9971 24.1012C17.0096 25.1314 18.4311 25.8134 20.17 25.8134C23.7569 25.8134 26.0634 22.8802 26.0634 19.92C26.0634 16.9599 23.7569 14.0267 20.17 14.0267C17.4405 14.0267 16.0129 15.9357 15.3431 17.1201H16.97C17.3382 17.1201 17.6367 17.4185 17.6367 17.7867C17.6367 18.1549 17.3382 18.4534 16.97 18.4534H13.77C13.4018 18.4534 13.1034 18.1549 13.1034 17.7867V14.5867C13.1034 14.2185 13.4018 13.9201 13.77 13.9201C14.1382 13.9201 14.4367 14.2185 14.4367 14.5867V16.0395ZM19.5034 16.7201C19.5034 16.3519 19.8018 16.0534 20.17 16.0534C20.5382 16.0534 20.8367 16.3519 20.8367 16.7201V19.6439L22.7748 21.582C23.0351 21.8423 23.0351 22.2645 22.7748 22.5248C22.5144 22.7852 22.0923 22.7852 21.832 22.5248L19.6986 20.3915C19.5736 20.2664 19.5034 20.0969 19.5034 19.9201V16.7201Z" fill="white" fill-opacity="0.6"/>
</svg>
