<svg width="40" height="40" viewBox="0 0 40 40" fill="none" xmlns="http://www.w3.org/2000/svg">
<path d="M0 8C0 3.58172 3.58172 0 8 0H32C36.4183 0 40 3.58172 40 8V32C40 36.4183 36.4183 40 32 40H8C3.58172 40 0 36.4183 0 32V8Z" fill="white" fill-opacity="0.1"/>
<mask id="path-2-inside-1_263_1119" fill="white">
<path fill-rule="evenodd" clip-rule="evenodd" d="M21.8333 13.6667C21.8333 13.1145 21.3856 12.6667 20.8333 12.6667H19.1666C18.6143 12.6667 18.1666 13.1145 18.1666 13.6667V14.5218C18.1666 14.6964 18.0554 14.8507 17.8942 14.9176C17.7329 14.9845 17.5461 14.9535 17.4226 14.83L16.818 14.2254C16.4275 13.8349 15.7943 13.8349 15.4038 14.2254L14.2253 15.4039C13.8348 15.7944 13.8348 16.4276 14.2253 16.8181L14.8299 17.4228C14.9534 17.5462 14.9844 17.733 14.9175 17.8943C14.8506 18.0555 14.6962 18.1667 14.5217 18.1667H13.6666C13.1143 18.1667 12.6666 18.6145 12.6666 19.1667L12.6666 20.8334C12.6666 21.3857 13.1143 21.8334 13.6666 21.8334H14.5218C14.6963 21.8334 14.8506 21.9446 14.9175 22.1058C14.9844 22.2671 14.9534 22.4538 14.8299 22.5773L14.2251 23.182C13.8346 23.5726 13.8346 24.2057 14.2251 24.5963L15.4036 25.7748C15.7942 26.1653 16.4273 26.1653 16.8179 25.7748L17.4225 25.1701C17.546 25.0466 17.7328 25.0156 17.8941 25.0825C18.0553 25.1494 18.1666 25.3038 18.1666 25.4784V26.3334C18.1666 26.8857 18.6143 27.3334 19.1666 27.3334H20.8333C21.3856 27.3334 21.8333 26.8857 21.8333 26.3334V25.4783C21.8333 25.3038 21.9445 25.1494 22.1057 25.0826C22.267 25.0156 22.4538 25.0467 22.5773 25.1701L23.182 25.7748C23.5725 26.1653 24.2057 26.1653 24.5962 25.7748L25.7747 24.5963C26.1652 24.2058 26.1652 23.5726 25.7747 23.1821L25.17 22.5774C25.0465 22.4539 25.0155 22.2672 25.0824 22.1059C25.1493 21.9447 25.3037 21.8334 25.4782 21.8334H26.3333C26.8856 21.8334 27.3333 21.3857 27.3333 20.8334V19.1667C27.3333 18.6145 26.8856 18.1667 26.3333 18.1667H25.4783C25.3037 18.1667 25.1493 18.0555 25.0824 17.8942C25.0155 17.7329 25.0465 17.5461 25.17 17.4226L25.7745 16.8181C26.1651 16.4276 26.1651 15.7944 25.7745 15.4039L24.596 14.2254C24.2055 13.8348 23.5723 13.8348 23.1818 14.2254L22.5771 14.83C22.4537 14.9535 22.267 14.9845 22.1057 14.9176C21.9445 14.8507 21.8333 14.6964 21.8333 14.5219V13.6667ZM20 21.3334C20.7363 21.3334 21.3333 20.7365 21.3333 20.0001C21.3333 19.2637 20.7363 18.6667 20 18.6667C19.2636 18.6667 18.6666 19.2637 18.6666 20.0001C18.6666 20.7365 19.2636 21.3334 20 21.3334Z"/>
</mask>
<path d="M22.5771 14.83L23.2842 15.5371L22.5771 14.83ZM24.596 14.2254L25.3031 13.5182L24.596 14.2254ZM23.1818 14.2254L22.4747 13.5182L23.1818 14.2254ZM25.7745 15.4039L25.0674 16.111L25.7745 15.4039ZM25.17 17.4226L25.8771 18.1297L25.17 17.4226ZM17.4225 25.1701L18.1296 25.8772L17.4225 25.1701ZM14.8299 22.5773L15.537 23.2844L14.8299 22.5773ZM14.8299 17.4228L14.1228 18.1299L14.8299 17.4228ZM14.2253 15.4039L13.5182 14.6968L14.2253 15.4039ZM15.4038 14.2254L14.6967 13.5183L15.4038 14.2254ZM19.1666 13.6667H20.8333V11.6667H19.1666V13.6667ZM19.1666 14.5218V13.6667L17.1666 13.6667V14.5218L19.1666 14.5218ZM16.1109 14.9325L16.7155 15.5371L18.1297 14.1229L17.5251 13.5183L16.1109 14.9325ZM14.9324 16.111L16.1109 14.9325L14.6967 13.5183L13.5182 14.6968L14.9324 16.111ZM15.537 16.7157L14.9324 16.111L13.5182 17.5252L14.1228 18.1299L15.537 16.7157ZM13.6666 19.1667H14.5217L14.5217 17.1667H13.6666L13.6666 19.1667ZM13.6666 20.8334L13.6666 19.1667H11.6666L11.6666 20.8334H13.6666ZM14.5218 20.8334H13.6666V22.8334H14.5218V20.8334ZM14.9322 23.8891L15.537 23.2844L14.1228 21.8702L13.518 22.4749L14.9322 23.8891ZM16.1107 25.0677L14.9322 23.8891L13.518 25.3034L14.6965 26.4819L16.1107 25.0677ZM16.7154 24.463L16.1107 25.0677L17.525 26.4819L18.1296 25.8772L16.7154 24.463ZM19.1666 26.3334V25.4784H17.1666V26.3334H19.1666ZM20.8333 26.3334H19.1666L19.1666 28.3334H20.8333V26.3334ZM20.8333 25.4783V26.3334H22.8333V25.4783H20.8333ZM23.8891 25.0677L23.2844 24.463L21.8702 25.8772L22.4749 26.4819L23.8891 25.0677ZM25.0676 23.8892L23.8891 25.0677L25.3033 26.4819L26.4818 25.3034L25.0676 23.8892ZM24.4629 23.2845L25.0676 23.8892L26.4818 22.475L25.8771 21.8703L24.4629 23.2845ZM26.3333 20.8334H25.4782V22.8334H26.3333V20.8334ZM26.3333 19.1667V20.8334H28.3333V19.1667L26.3333 19.1667ZM25.4783 19.1667H26.3333V17.1667H25.4783V19.1667ZM25.0674 16.111L24.4629 16.7155L25.8771 18.1297L26.4816 17.5252L25.0674 16.111ZM23.8889 14.9325L25.0674 16.111L26.4816 14.6968L25.3031 13.5182L23.8889 14.9325ZM23.2842 15.5371L23.8889 14.9325L22.4747 13.5182L21.87 14.1229L23.2842 15.5371ZM20.8333 13.6667V14.5219H22.8333V13.6667H20.8333ZM20.3333 20.0001C20.3333 20.1842 20.1841 20.3334 20 20.3334V22.3334C21.2886 22.3334 22.3333 21.2887 22.3333 20.0001H20.3333ZM20 19.6667C20.1841 19.6667 20.3333 19.816 20.3333 20.0001H22.3333C22.3333 18.7114 21.2886 17.6667 20 17.6667V19.6667ZM19.6666 20.0001C19.6666 19.816 19.8159 19.6667 20 19.6667V17.6667C18.7113 17.6667 17.6666 18.7114 17.6666 20.0001H19.6666ZM20 20.3334C19.8159 20.3334 19.6666 20.1842 19.6666 20.0001H17.6666C17.6666 21.2887 18.7113 22.3334 20 22.3334V20.3334ZM22.4888 13.9939C22.6707 14.0693 22.8333 14.2602 22.8333 14.5219H20.8333C20.8333 15.1326 21.2183 15.6321 21.7226 15.8413L22.4888 13.9939ZM21.87 14.1229C22.0527 13.9403 22.3032 13.9169 22.4888 13.9939L21.7226 15.8413C22.2308 16.0521 22.8547 15.9667 23.2842 15.5371L21.87 14.1229ZM25.3031 13.5182C24.5221 12.7372 23.2558 12.7372 22.4747 13.5182L23.8889 14.9325L25.3031 13.5182ZM26.4816 17.5252C27.2627 16.7441 27.2627 15.4778 26.4816 14.6968L25.0674 16.111L25.0674 16.111L26.4816 17.5252ZM26.0061 17.5111C26.0831 17.6967 26.0597 17.9471 25.8771 18.1297L24.4629 16.7155C24.0333 17.1451 23.9479 17.7691 24.1587 18.2774L26.0061 17.5111ZM25.4783 17.1667C25.7399 17.1667 25.9307 17.3293 26.0061 17.5111L24.1587 18.2774C24.3679 18.7817 24.8675 19.1667 25.4783 19.1667V17.1667ZM28.3333 19.1667C28.3333 18.0622 27.4379 17.1667 26.3333 17.1667V19.1667L28.3333 19.1667ZM26.3333 22.8334C27.4379 22.8334 28.3333 21.938 28.3333 20.8334H26.3333V22.8334ZM26.0061 22.489C25.9307 22.6709 25.7399 22.8334 25.4782 22.8334V20.8334C24.8675 20.8334 24.3679 21.2185 24.1587 21.7227L26.0061 22.489ZM25.8771 21.8703C26.0598 22.0529 26.0831 22.3034 26.0061 22.489L24.1587 21.7227C23.9479 22.231 24.0333 22.8549 24.4629 23.2845L25.8771 21.8703ZM26.4818 25.3034C27.2628 24.5224 27.2628 23.256 26.4818 22.475L25.0676 23.8892V23.8892L26.4818 25.3034ZM22.4749 26.4819C23.2559 27.263 24.5222 27.263 25.3033 26.4819L23.8891 25.0677L23.8891 25.0677L22.4749 26.4819ZM22.4889 26.0062C22.3032 26.0832 22.0528 26.0599 21.8702 25.8772L23.2844 24.463C22.8548 24.0334 22.2308 23.948 21.7226 24.1589L22.4889 26.0062ZM22.8333 25.4783C22.8333 25.74 22.6707 25.9308 22.4889 26.0062L21.7226 24.1589C21.2184 24.368 20.8333 24.8676 20.8333 25.4783H22.8333ZM20.8333 28.3334C21.9379 28.3334 22.8333 27.438 22.8333 26.3334H20.8333V28.3334ZM17.1666 26.3334C17.1666 27.438 18.0621 28.3334 19.1666 28.3334L19.1666 26.3334H19.1666H17.1666ZM17.511 26.0062C17.3292 25.9308 17.1666 25.74 17.1666 25.4784H19.1666C19.1666 24.8676 18.7815 24.368 18.2773 24.1588L17.511 26.0062ZM18.1296 25.8772C17.947 26.0599 17.6966 26.0832 17.511 26.0062L18.2773 24.1588C17.769 23.948 17.145 24.0334 16.7154 24.463L18.1296 25.8772ZM14.6965 26.4819C15.4776 27.2629 16.7439 27.2629 17.525 26.4819L16.1107 25.0677L14.6965 26.4819ZM13.518 22.4749C12.737 23.256 12.737 24.5223 13.518 25.3034L14.9322 23.8891L14.9322 23.8891L13.518 22.4749ZM13.9938 22.489C13.9168 22.3033 13.9401 22.0528 14.1228 21.8702L15.537 23.2844C15.9666 22.8548 16.052 22.2309 15.8412 21.7227L13.9938 22.489ZM14.5218 22.8334C14.2601 22.8334 14.0692 22.6708 13.9938 22.489L15.8412 21.7227C15.632 21.2185 15.1325 20.8334 14.5218 20.8334V22.8334ZM11.6666 20.8334C11.6666 21.938 12.5621 22.8334 13.6666 22.8334V20.8334H13.6666H11.6666ZM13.6666 17.1667C12.5621 17.1667 11.6666 18.0622 11.6666 19.1667H13.6666L13.6666 19.1667L13.6666 17.1667ZM13.9938 17.5112C14.0692 17.3293 14.26 17.1667 14.5217 17.1667L14.5217 19.1667C15.1324 19.1667 15.632 18.7817 15.8412 18.2774L13.9938 17.5112ZM14.1228 18.1299C13.9402 17.9472 13.9168 17.6968 13.9938 17.5112L15.8412 18.2774C16.052 17.7692 15.9666 17.1453 15.537 16.7157L14.1228 18.1299ZM13.5182 14.6968C12.7371 15.4779 12.7371 16.7442 13.5182 17.5252L14.9324 16.111H14.9324L13.5182 14.6968ZM17.5251 13.5183C16.7441 12.7373 15.4777 12.7373 14.6967 13.5183L16.1109 14.9325L16.1109 14.9325L17.5251 13.5183ZM17.511 13.9939C17.6967 13.9169 17.9471 13.9403 18.1297 14.1229L16.7155 15.5371C17.1451 15.9667 17.7691 16.0521 18.2773 15.8413L17.511 13.9939ZM17.1666 14.5218C17.1666 14.2602 17.3292 14.0694 17.511 13.9939L18.2773 15.8413C18.7816 15.6321 19.1666 15.1326 19.1666 14.5218L17.1666 14.5218ZM20.8333 13.6667H20.8333H22.8333C22.8333 12.5622 21.9379 11.6667 20.8333 11.6667V13.6667ZM19.1666 11.6667C18.0621 11.6667 17.1666 12.5622 17.1666 13.6667L19.1666 13.6667V11.6667Z" fill="white" mask="url(#path-2-inside-1_263_1119)"/>
</svg>
