<svg width="25" height="24" viewBox="0 0 25 24" fill="none" xmlns="http://www.w3.org/2000/svg">
<path d="M12.6932 2.18478C12.7957 1.93839 13.1447 1.93839 13.2472 2.18478L16.0739 8.98092C16.1171 9.08479 16.2148 9.15576 16.3269 9.16475L23.6639 9.75295C23.9299 9.77428 24.0378 10.1062 23.8351 10.2798L18.2451 15.0683C18.1596 15.1415 18.1223 15.2563 18.1484 15.3657L19.8563 22.5254C19.9182 22.785 19.6358 22.9901 19.4081 22.851L13.1266 19.0143C13.0306 18.9557 12.9098 18.9557 12.8138 19.0143L6.53234 22.851C6.30461 22.9901 6.02223 22.785 6.08415 22.5254L7.79199 15.3657C7.8181 15.2563 7.78078 15.1415 7.69535 15.0683L2.10532 10.2798C1.90266 10.1062 2.01052 9.77428 2.27652 9.75295L9.61352 9.16475C9.72566 9.15576 9.82334 9.08479 9.86654 8.98092L12.6932 2.18478Z" stroke="#008CF4" stroke-width="2"/>
</svg>
