<svg width="24" height="24" viewBox="0 0 24 24" fill="none" xmlns="http://www.w3.org/2000/svg">
<path fill-rule="evenodd" clip-rule="evenodd" d="M4.5 21C3.67157 21 3 20.3284 3 19.5L3 9.5826C3 8.75418 3.67157 8.0826 4.5 8.0826L6.16437 8.0826C6.71666 8.0826 7.16437 8.53032 7.16437 9.0826C7.16437 9.63489 6.71666 10.0826 6.16437 10.0826L5 10.0826L5 19L19.3761 19L19.3761 10.0826L18.2119 10.0826C17.6596 10.0826 17.2119 9.63489 17.2119 9.0826C17.2119 8.53032 17.6596 8.0826 18.2119 8.0826L19.8761 8.0826C20.7045 8.0826 21.3761 8.75418 21.3761 9.5826L21.3761 19.5C21.3761 20.3284 20.7045 21 19.8761 21L4.5 21ZM8.41042 7.40154C8.0199 7.01101 8.0199 6.37785 8.41042 5.98732L11.4809 2.9168C11.6685 2.72927 11.9228 2.62391 12.188 2.62391C12.4533 2.62391 12.7076 2.72926 12.8952 2.9168L15.9657 5.98732C16.3562 6.37785 16.3562 7.01101 15.9657 7.40154C15.5751 7.79206 14.942 7.79206 14.5515 7.40154L13.188 6.03813L13.188 14.5413C13.188 15.0936 12.7403 15.5413 12.188 15.5413C11.6358 15.5413 11.188 15.0936 11.188 14.5413L11.188 6.03813L9.82464 7.40154C9.43411 7.79206 8.80095 7.79206 8.41042 7.40154Z" fill="#008CF4"/>
</svg>
