<svg width="24" height="24" viewBox="0 0 24 24" fill="none" xmlns="http://www.w3.org/2000/svg">
<path fill-rule="evenodd" clip-rule="evenodd" d="M1.68829 11.9996C1.68829 6.30469 6.30493 1.68805 11.9998 1.68805C17.6947 1.68805 22.3114 6.30469 22.3114 11.9996C22.3114 17.6944 17.6947 22.3111 11.9998 22.3111C6.30493 22.3111 1.68829 17.6944 1.68829 11.9996ZM11.9998 2.63805C6.8296 2.63805 2.63829 6.82936 2.63829 11.9996C2.63829 17.1698 6.8296 21.3611 11.9998 21.3611C17.17 21.3611 21.3614 17.1698 21.3614 11.9996C21.3614 6.82936 17.17 2.63805 11.9998 2.63805ZM13 17.0001C13 17.5523 12.5523 18.0001 12 18.0001C11.4477 18.0001 11 17.5523 11 17.0001C11 16.4478 11.4477 16.0001 12 16.0001C12.5523 16.0001 13 16.4478 13 17.0001ZM9.35003 10C9.35003 8.72213 10.4451 7.55002 12 7.55002C13.555 7.55002 14.65 8.72213 14.65 10C14.65 10.9697 14.08 11.4569 13.3145 11.922C13.2187 11.9802 13.114 12.0409 13.0057 12.1039C12.7178 12.2711 12.404 12.4533 12.162 12.6419C11.8071 12.9184 11.45 13.3208 11.45 13.92C11.45 14.2238 11.6963 14.47 12 14.47C12.3038 14.47 12.55 14.2238 12.55 13.92C12.55 13.8193 12.5929 13.7006 12.8381 13.5096C13.0182 13.3692 13.2277 13.2477 13.483 13.0996C13.6059 13.0283 13.7395 12.9508 13.8856 12.8621C14.72 12.3552 15.75 11.5823 15.75 10C15.75 8.07791 14.1251 6.45002 12 6.45002C9.87495 6.45002 8.25003 8.07791 8.25003 10C8.25003 10.3038 8.49627 10.55 8.80003 10.55C9.10378 10.55 9.35003 10.3038 9.35003 10Z" fill="#008CF4"/>
</svg>
