<svg width="41" height="40" viewBox="0 0 41 40" fill="none" xmlns="http://www.w3.org/2000/svg">
<path d="M0.5 8C0.5 3.58172 4.08172 0 8.5 0H32.5C36.9183 0 40.5 3.58172 40.5 8V32C40.5 36.4183 36.9183 40 32.5 40H8.5C4.08172 40 0.5 36.4183 0.5 32V8Z" fill="white" fill-opacity="0.1"/>
<path fill-rule="evenodd" clip-rule="evenodd" d="M20.0793 12.2655C20.3128 12.0358 20.6873 12.0358 20.9208 12.2655L28.1208 19.3482C28.3571 19.5806 28.3602 19.9605 28.1278 20.1967C27.8954 20.4329 27.5155 20.4361 27.2793 20.2037L26.3334 19.2732V25.3333C26.3334 25.6094 26.1096 25.8333 25.8334 25.8333H15.1667C14.8906 25.8333 14.6667 25.6094 14.6667 25.3333V19.2732L13.7208 20.2037C13.4846 20.4361 13.1047 20.4329 12.8723 20.1967C12.64 19.9605 12.6431 19.5806 12.8793 19.3482L20.0793 12.2655ZM20.5001 13.5349L25.3334 18.2895V24.8333H23.1334V21.0666C23.1334 20.7905 22.9095 20.5666 22.6334 20.5666H19.4334C19.1573 20.5666 18.9334 20.7905 18.9334 21.0666V24.8333H15.6667L15.6667 18.2895L20.5001 13.5349ZM19.9334 24.8333H22.1334V21.5666H19.9334V24.8333Z" fill="white"/>
<path d="M8.5 1H32.5V-1H8.5V1ZM39.5 8V32H41.5V8H39.5ZM32.5 39H8.5V41H32.5V39ZM1.5 32V8H-0.5V32H1.5ZM8.5 39C4.63401 39 1.5 35.866 1.5 32H-0.5C-0.5 36.9706 3.52944 41 8.5 41V39ZM39.5 32C39.5 35.866 36.366 39 32.5 39V41C37.4706 41 41.5 36.9706 41.5 32H39.5ZM32.5 1C36.366 1 39.5 4.13401 39.5 8H41.5C41.5 3.02944 37.4706 -1 32.5 -1V1ZM8.5 -1C3.52944 -1 -0.5 3.02944 -0.5 8H1.5C1.5 4.13401 4.63401 1 8.5 1V-1Z" fill="#FA00FF"/>
</svg>
