<svg width="68" height="68" viewBox="0 0 68 68" fill="none" xmlns="http://www.w3.org/2000/svg">
<path d="M0 34C0 15.2223 15.2223 0 34 0C52.7777 0 68 15.2223 68 34C68 52.7777 52.7777 68 34 68C15.2223 68 0 52.7777 0 34Z" fill="url(#paint0_linear_351_6310)"/>
<path fill-rule="evenodd" clip-rule="evenodd" d="M29.035 23.6551C28.727 23.4601 28.3372 23.4481 28.0178 23.6239C27.6984 23.7997 27.5 24.1354 27.5 24.5V43.4984C27.5 43.863 27.6984 44.1987 28.0178 44.3745C28.3372 44.5503 28.727 44.5383 29.035 44.3433L44.0358 34.8441C44.3253 34.6607 44.5008 34.3419 44.5008 33.9992C44.5008 33.6565 44.3253 33.3377 44.0358 33.1544L29.035 23.6551ZM41.6316 33.9992L29.5 41.6815V26.3169L41.6316 33.9992Z" fill="white"/>
<defs>
<linearGradient id="paint0_linear_351_6310" x1="-8.16" y1="114.467" x2="92.1298" y2="107.739" gradientUnits="userSpaceOnUse">
<stop stop-color="#008CF4"/>
<stop offset="1" stop-color="#2300F4"/>
</linearGradient>
</defs>
</svg>
