<svg width="41" height="41" viewBox="0 0 41 41" fill="none" xmlns="http://www.w3.org/2000/svg">
<rect x="0.5" y="0.399902" width="40" height="40" rx="20" fill="white" fill-opacity="0.1"/>
<path fill-rule="evenodd" clip-rule="evenodd" d="M28.3519 16.8443C28.3519 16.4352 28.0203 16.1035 27.6112 16.1035C27.2021 16.1035 26.8704 16.4352 26.8704 16.8443V25.585H14.1297L14.1297 16.8443C14.1297 16.4352 13.7981 16.1035 13.389 16.1035C12.9799 16.1035 12.6482 16.4352 12.6482 16.8443V25.7332C12.6482 26.4695 13.2452 27.0665 13.9816 27.0665H27.0186C27.755 27.0665 28.3519 26.4695 28.3519 25.7332V16.8443ZM23.6905 19.4421C23.9798 19.1529 23.9798 18.6838 23.6905 18.3946C23.4012 18.1053 22.9322 18.1053 22.643 18.3946L21.2408 19.7967V12.1035C21.2408 11.6944 20.9092 11.3628 20.5001 11.3628C20.091 11.3628 19.7593 11.6944 19.7593 12.1035L19.7593 19.7967L18.3572 18.3946C18.0679 18.1053 17.5989 18.1053 17.3096 18.3946C17.0203 18.6838 17.0203 19.1529 17.3096 19.4421L19.9763 22.1088C20.2656 22.3981 20.7346 22.3981 21.0239 22.1088L23.6905 19.4421Z" fill="white"/>
</svg>
