<svg width="24" height="24" viewBox="0 0 24 24" fill="none" xmlns="http://www.w3.org/2000/svg">
<path fill-rule="evenodd" clip-rule="evenodd" d="M1.16327 11.9996C1.16327 6.01477 6.01496 1.16309 11.9998 1.16309C17.9846 1.16309 22.8363 6.01477 22.8363 11.9996C22.8363 17.9844 17.9846 22.8361 11.9998 22.8361C6.01495 22.8361 1.16327 17.9844 1.16327 11.9996ZM11.9998 3.16309C7.11953 3.16309 3.16327 7.11934 3.16327 11.9996C3.16327 16.8799 7.11953 20.8361 11.9998 20.8361C16.88 20.8361 20.8363 16.8799 20.8363 11.9996C20.8363 7.11935 16.88 3.16309 11.9998 3.16309Z" fill="#008CF4"/>
<circle cx="12" cy="17" r="1" fill="#008CF4"/>
<path fill-rule="evenodd" clip-rule="evenodd" d="M12 8C10.6783 8 9.79999 8.98565 9.79999 10C9.79999 10.5523 9.35227 11 8.79999 11C8.2477 11 7.79999 10.5523 7.79999 10C7.79999 7.81435 9.64167 6 12 6C14.3583 6 16.2 7.81435 16.2 10C16.2 11.8329 14.9818 12.7226 14.1192 13.2467C13.9479 13.3507 13.8029 13.4347 13.6765 13.5079C13.4414 13.6441 13.2706 13.743 13.1146 13.8646C13.0353 13.9263 12.9998 14.0234 12.9796 14.1218C12.8863 14.5774 12.4831 14.92 12 14.92C11.4477 14.92 11 14.4723 11 13.92C11 13.1168 11.4856 12.5984 11.8854 12.2869C12.1539 12.0777 12.5143 11.8684 12.8088 11.6974C12.9092 11.6391 13.002 11.5852 13.0808 11.5373C13.8182 11.0894 14.2 10.7191 14.2 10C14.2 8.98565 13.3217 8 12 8Z" fill="#008CF4"/>
</svg>
