<svg width="24" height="24" viewBox="0 0 24 24" fill="none" xmlns="http://www.w3.org/2000/svg">
<path fill-rule="evenodd" clip-rule="evenodd" d="M3.31177 19.688C3.31177 20.2403 3.75948 20.688 4.31177 20.688L19.6879 20.688C20.2401 20.688 20.6879 20.2403 20.6879 19.688L20.6879 9.77065C20.6879 9.21837 20.2401 8.77065 19.6879 8.77065L18.0237 8.77065C17.7475 8.77065 17.5237 8.99451 17.5237 9.27065C17.5237 9.5468 17.7475 9.77065 18.0237 9.77065L19.6879 9.77065L19.6879 19.688L4.31177 19.688L4.31177 9.77065L5.97614 9.77065C6.25228 9.77065 6.47614 9.54679 6.47614 9.27065C6.47614 8.99451 6.25228 8.77065 5.97614 8.77065L4.31177 8.77065C3.75948 8.77065 3.31177 9.21837 3.31177 9.77065L3.31177 19.688ZM8.57574 6.52892C8.38048 6.72419 8.38048 7.04077 8.57574 7.23603C8.77101 7.4313 9.08759 7.4313 9.28285 7.23603L11.4998 5.01907L11.4998 14.7294C11.4998 15.0055 11.7237 15.2294 11.9998 15.2294C12.276 15.2294 12.4998 15.0055 12.4998 14.7294L12.4998 5.01907L14.7168 7.23603C14.912 7.43129 15.2286 7.43129 15.4239 7.23603C15.6191 7.04077 15.6191 6.72419 15.4239 6.52892L12.3534 3.45841C12.2596 3.36464 12.1324 3.31196 11.9998 3.31196C11.8672 3.31196 11.74 3.36464 11.6463 3.45841L8.57574 6.52892Z" fill="#008CF4"/>
</svg>
