<svg width="40" height="40" viewBox="0 0 40 40" fill="none" xmlns="http://www.w3.org/2000/svg">
<rect x="0.5" y="0.5" width="39" height="39" rx="7.5" fill="white" fill-opacity="0.1"/>
<path fill-rule="evenodd" clip-rule="evenodd" d="M13.5334 14C12.6129 14 11.8667 14.7462 11.8667 15.6667L11.8667 24.3333C11.8667 25.2538 12.6129 26 13.5334 26H26.4667C27.3872 26 28.1334 25.2538 28.1334 24.3333V15.6667C28.1334 14.7462 27.3872 14 26.4667 14L13.5334 14ZM13.2 15.6667C13.2 15.4826 13.3493 15.3333 13.5334 15.3333L26.4667 15.3333C26.6508 15.3333 26.8 15.4826 26.8 15.6667V24.3333C26.8 24.5174 26.6508 24.6667 26.4667 24.6667H13.5334C13.3493 24.6667 13.2 24.5174 13.2 24.3333L13.2 15.6667ZM22 22C23.1046 22 24 21.1046 24 20C24 18.8954 23.1046 18 22 18C20.8954 18 20 18.8954 20 20C20 21.1046 20.8954 22 22 22ZM22 23.3333C23.8409 23.3333 25.3333 21.8409 25.3333 20C25.3333 18.1591 23.8409 16.6667 22 16.6667C20.1591 16.6667 18.6667 18.1591 18.6667 20C18.6667 21.8409 20.1591 23.3333 22 23.3333ZM15.6667 16.6667C15.1144 16.6667 14.6667 17.1144 14.6667 17.6667C14.6667 18.219 15.1144 18.6667 15.6667 18.6667C16.219 18.6667 16.6667 18.219 16.6667 17.6667C16.6667 17.1144 16.219 16.6667 15.6667 16.6667Z" fill="white"/>
<rect x="0.5" y="0.5" width="39" height="39" rx="7.5" stroke="#FA00FF"/>
</svg>
