<svg width="40" height="40" viewBox="0 0 40 40" fill="none" xmlns="http://www.w3.org/2000/svg">
<path d="M0 8C0 3.58172 3.58172 0 8 0H32C36.4183 0 40 3.58172 40 8V32C40 36.4183 36.4183 40 32 40H8C3.58172 40 0 36.4183 0 32V8Z" fill="white" fill-opacity="0.1"/>
<path fill-rule="evenodd" clip-rule="evenodd" d="M21.1667 13.3333H18.8333V14.5217C18.8333 14.9871 18.5395 15.3716 18.1496 15.5333C17.757 15.6962 17.2788 15.6289 16.9513 15.3013L16.1109 14.461L14.461 16.1109L15.3014 16.9513C15.6289 17.2788 15.6962 17.757 15.5333 18.1496C15.3716 18.5395 14.9871 18.8333 14.5218 18.8333H13.3333V21.1667H14.5218C14.9871 21.1667 15.3716 21.4604 15.5333 21.8503C15.6961 22.2429 15.6289 22.721 15.3014 23.0486L14.4609 23.8891L16.1108 25.539L16.9511 24.6986C17.2787 24.371 17.757 24.3038 18.1496 24.4666C18.5395 24.6284 18.8333 25.0129 18.8333 25.4783L18.8333 26.6667H21.1667V25.4782C21.1667 25.0129 21.4605 24.6284 21.8504 24.4667C22.243 24.3038 22.7212 24.3711 23.0487 24.6986L23.8891 25.539L25.539 23.8891L24.6986 23.0487C24.3711 22.7212 24.3038 22.2429 24.4667 21.8504C24.6284 21.4605 25.0129 21.1667 25.4782 21.1667H26.6667V18.8333L25.4783 18.8333C25.0129 18.8333 24.6284 18.5395 24.4667 18.1496C24.3038 17.757 24.3711 17.2787 24.6986 16.9511L25.5389 16.1109L23.889 14.461L23.0486 15.3013C22.7211 15.6289 22.2429 15.6961 21.8503 15.5333C21.4604 15.3716 21.1667 14.9871 21.1667 14.5218V13.3333ZM22 20C22 21.1046 21.1046 22 20 22C18.8954 22 18 21.1046 18 20C18 18.8954 18.8954 18 20 18C21.1046 18 22 18.8954 22 20ZM21.1667 12.6667C21.5349 12.6667 21.8333 12.9651 21.8333 13.3333V14.5218C21.8333 14.6963 21.9446 14.8507 22.1057 14.9175C22.267 14.9844 22.4537 14.9534 22.5772 14.8299L23.4176 13.9896C23.6779 13.7292 24.1 13.7292 24.3604 13.9896L26.0103 15.6395C26.2706 15.8998 26.2706 16.3219 26.0103 16.5823L25.17 17.4225C25.0465 17.546 25.0155 17.7328 25.0824 17.8942C25.1493 18.0554 25.3037 18.1667 25.4783 18.1667L26.6667 18.1667C27.0349 18.1667 27.3333 18.4651 27.3333 18.8333V21.1667C27.3333 21.5348 27.0349 21.8333 26.6667 21.8333H25.4782C25.3037 21.8333 25.1493 21.9446 25.0825 22.1058C25.0156 22.2671 25.0466 22.4538 25.17 22.5773L26.0104 23.4177C26.2708 23.6781 26.2708 24.1002 26.0104 24.3605L24.3605 26.0104C24.1002 26.2708 23.6781 26.2708 23.4177 26.0104L22.5773 25.17C22.4538 25.0466 22.2671 25.0156 22.1058 25.0825C21.9446 25.1493 21.8333 25.3037 21.8333 25.4782V26.6667C21.8333 27.0348 21.5349 27.3333 21.1667 27.3333H18.8333C18.4651 27.3333 18.1667 27.0348 18.1667 26.6667L18.1667 25.4783C18.1667 25.3037 18.0554 25.1493 17.8942 25.0824C17.7328 25.0155 17.546 25.0465 17.4225 25.17L16.5822 26.0104C16.3218 26.2707 15.8997 26.2707 15.6394 26.0104L13.9895 24.3605C13.7291 24.1001 13.7291 23.678 13.9895 23.4176L14.8299 22.5772C14.9534 22.4537 14.9844 22.267 14.9175 22.1057C14.8507 21.9446 14.6963 21.8333 14.5218 21.8333H13.3333C12.9651 21.8333 12.6667 21.5348 12.6667 21.1667V18.8333C12.6667 18.4651 12.9651 18.1667 13.3333 18.1667H14.5218C14.6963 18.1667 14.8507 18.0554 14.9175 17.8942C14.9844 17.7329 14.9534 17.5462 14.83 17.4227L13.9896 16.5823C13.7293 16.322 13.7293 15.8999 13.9896 15.6395L15.6395 13.9896C15.8999 13.7293 16.322 13.7293 16.5823 13.9896L17.4227 14.8299C17.5462 14.9534 17.7329 14.9844 17.8942 14.9175C18.0554 14.8507 18.1667 14.6963 18.1667 14.5217V13.3333C18.1667 12.9651 18.4651 12.6667 18.8333 12.6667H21.1667ZM21.3333 20C21.3333 20.7364 20.7364 21.3333 20 21.3333C19.2636 21.3333 18.6667 20.7364 18.6667 20C18.6667 19.2636 19.2636 18.6667 20 18.6667C20.7364 18.6667 21.3333 19.2636 21.3333 20Z" fill="white"/>
</svg>
