<svg width="41" height="41" viewBox="0 0 41 41" fill="none" xmlns="http://www.w3.org/2000/svg">
<path d="M0.5 20.3998C0.5 9.35415 9.45431 0.399841 20.5 0.399841C31.5457 0.399841 40.5 9.35415 40.5 20.3998C40.5 31.4455 31.5457 40.3998 20.5 40.3998C9.45431 40.3998 0.5 31.4455 0.5 20.3998Z" fill="white" fill-opacity="0.1"/>
<path fill-rule="evenodd" clip-rule="evenodd" d="M27.9815 16.8443C27.9815 16.6397 27.8157 16.4739 27.6111 16.4739C27.4066 16.4739 27.2407 16.6397 27.2407 16.8443L27.2407 25.7332C27.2407 25.8559 27.1412 25.9554 27.0185 25.9554L13.9815 25.9554C13.8587 25.9554 13.7593 25.8559 13.7593 25.7332L13.7593 16.8443C13.7593 16.6397 13.5934 16.4739 13.3889 16.4739C13.1843 16.4739 13.0185 16.6397 13.0185 16.8443L13.0185 25.7332C13.0185 26.265 13.4496 26.6961 13.9815 26.6961L27.0185 26.6961C27.5503 26.6961 27.9815 26.265 27.9815 25.7332L27.9815 16.8443ZM23.4286 19.1802C23.5732 19.0356 23.5732 18.8011 23.4286 18.6564C23.2839 18.5118 23.0494 18.5118 22.9048 18.6564L20.8704 20.6909L20.8704 12.1035C20.8704 11.899 20.7045 11.7332 20.5 11.7332C20.2954 11.7332 20.1296 11.899 20.1296 12.1035L20.1296 20.6909L18.0952 18.6564C17.9506 18.5118 17.7161 18.5118 17.5714 18.6564C17.4268 18.8011 17.4268 19.0356 17.5714 19.1802L20.2381 21.8469C20.3827 21.9915 20.6172 21.9915 20.7619 21.8469L23.4286 19.1802Z" fill="white"/>
</svg>
