<svg width="41" height="40" viewBox="0 0 41 40" fill="none" xmlns="http://www.w3.org/2000/svg">
<path d="M0.75 8C0.75 3.58172 4.33172 0 8.75 0H32.75C37.1683 0 40.75 3.58172 40.75 8V32C40.75 36.4183 37.1683 40 32.75 40H8.75C4.33172 40 0.75 36.4183 0.75 32V8Z" fill="white" fill-opacity="0.1"/>
<path fill-rule="evenodd" clip-rule="evenodd" d="M14.2834 14C13.3629 14 12.6167 14.7462 12.6167 15.6667L12.6167 24.3333C12.6167 25.2538 13.3629 26 14.2834 26H27.2167C28.1372 26 28.8834 25.2538 28.8834 24.3333V15.6667C28.8834 14.7462 28.1372 14 27.2167 14L14.2834 14ZM13.95 15.6667C13.95 15.4826 14.0993 15.3333 14.2834 15.3333L27.2167 15.3333C27.4008 15.3333 27.55 15.4826 27.55 15.6667V24.3333C27.55 24.5174 27.4008 24.6667 27.2167 24.6667H14.2834C14.0993 24.6667 13.95 24.5174 13.95 24.3333L13.95 15.6667ZM22.75 22C23.8546 22 24.75 21.1046 24.75 20C24.75 18.8954 23.8546 18 22.75 18C21.6454 18 20.75 18.8954 20.75 20C20.75 21.1046 21.6454 22 22.75 22ZM22.75 23.3333C24.5909 23.3333 26.0833 21.8409 26.0833 20C26.0833 18.1591 24.5909 16.6667 22.75 16.6667C20.9091 16.6667 19.4167 18.1591 19.4167 20C19.4167 21.8409 20.9091 23.3333 22.75 23.3333ZM16.4167 16.6667C15.8644 16.6667 15.4167 17.1144 15.4167 17.6667C15.4167 18.219 15.8644 18.6667 16.4167 18.6667C16.969 18.6667 17.4167 18.219 17.4167 17.6667C17.4167 17.1144 16.969 16.6667 16.4167 16.6667Z" fill="white" fill-opacity="0.6"/>
</svg>
