<svg width="41" height="40" viewBox="0 0 41 40" fill="none" xmlns="http://www.w3.org/2000/svg">
<path d="M0.25 8C0.25 3.58172 3.83172 0 8.25 0H32.25C36.6683 0 40.25 3.58172 40.25 8V32C40.25 36.4183 36.6683 40 32.25 40H8.25C3.83172 40 0.25 36.4183 0.25 32V8Z" fill="white" fill-opacity="0.1"/>
<path fill-rule="evenodd" clip-rule="evenodd" d="M26.23 19.9199C26.23 16.8795 23.8603 13.8599 20.17 13.8599C17.1448 13.8599 15.6724 16.1312 15.0621 17.2866H16.97C17.2462 17.2866 17.47 17.5104 17.47 17.7866C17.47 18.0627 17.2462 18.2866 16.97 18.2866H13.77C13.4939 18.2866 13.27 18.0627 13.27 17.7866V14.5866C13.27 14.3104 13.4939 14.0866 13.77 14.0866C14.0462 14.0866 14.27 14.3104 14.27 14.5866V16.6485C14.9833 15.354 16.7144 12.8599 20.17 12.8599C24.483 12.8599 27.23 16.4003 27.23 19.9199C27.23 23.4395 24.483 26.9799 20.17 26.9799C18.1059 26.9799 16.3881 26.1633 15.165 24.9188C14.51 24.2523 13.9984 23.4649 13.6495 22.6173C13.5444 22.3619 13.6663 22.0697 13.9216 21.9646C14.177 21.8595 14.4692 21.9814 14.5743 22.2367C14.8754 22.9685 15.3164 23.6462 15.8782 24.2179C16.9208 25.2787 18.3847 25.9799 20.17 25.9799C23.8603 25.9799 26.23 22.9603 26.23 19.9199ZM20.17 16.2199C20.4462 16.2199 20.67 16.4438 20.67 16.7199V19.7128L22.6569 21.6997C22.8522 21.8949 22.8522 22.2115 22.6569 22.4068C22.4616 22.6021 22.1451 22.6021 21.9498 22.4068L19.8165 20.2735C19.7227 20.1797 19.67 20.0525 19.67 19.9199V16.7199C19.67 16.4438 19.8939 16.2199 20.17 16.2199Z" fill="white"/>
</svg>
