<svg width="40" height="40" viewBox="0 0 40 40" fill="none" xmlns="http://www.w3.org/2000/svg">
<path d="M0 8C0 3.58172 3.58172 0 8 0H32C36.4183 0 40 3.58172 40 8V32C40 36.4183 36.4183 40 32 40H8C3.58172 40 0 36.4183 0 32V8Z" fill="white" fill-opacity="0.1"/>
<mask id="path-2-inside-1_261_2440" fill="white">
<path fill-rule="evenodd" clip-rule="evenodd" d="M21.8333 13.6667C21.8333 13.1144 21.3856 12.6667 20.8333 12.6667H19.1667C18.6144 12.6667 18.1667 13.1144 18.1667 13.6667V14.5217C18.1667 14.6963 18.0554 14.8507 17.8942 14.9175C17.7329 14.9844 17.5461 14.9534 17.4227 14.8299L16.818 14.2253C16.4275 13.8348 15.7944 13.8348 15.4038 14.2253L14.2253 15.4038C13.8348 15.7944 13.8348 16.4275 14.2253 16.818L14.83 17.4227C14.9534 17.5462 14.9844 17.7329 14.9175 17.8942C14.8507 18.0554 14.6963 18.1667 14.5218 18.1667H13.6667C13.1144 18.1667 12.6667 18.6144 12.6667 19.1667L12.6667 20.8333C12.6667 21.3856 13.1144 21.8333 13.6667 21.8333H14.5218C14.6963 21.8333 14.8507 21.9446 14.9175 22.1057C14.9844 22.267 14.9534 22.4537 14.8299 22.5772L14.2252 23.1819C13.8346 23.5725 13.8346 24.2056 14.2252 24.5962L15.4037 25.7747C15.7942 26.1652 16.4274 26.1652 16.8179 25.7747L17.4225 25.17C17.546 25.0465 17.7328 25.0155 17.8942 25.0824C18.0554 25.1493 18.1667 25.3037 18.1667 25.4783V26.3333C18.1667 26.8856 18.6144 27.3333 19.1667 27.3333H20.8333C21.3856 27.3333 21.8333 26.8856 21.8333 26.3333V25.4782C21.8333 25.3037 21.9446 25.1493 22.1058 25.0825C22.2671 25.0156 22.4538 25.0466 22.5773 25.17L23.182 25.7747C23.5725 26.1653 24.2057 26.1653 24.5962 25.7747L25.7747 24.5962C26.1653 24.2057 26.1653 23.5725 25.7747 23.182L25.17 22.5773C25.0466 22.4538 25.0156 22.2671 25.0825 22.1058C25.1493 21.9446 25.3037 21.8333 25.4782 21.8333H26.3333C26.8856 21.8333 27.3333 21.3856 27.3333 20.8333V19.1667C27.3333 18.6144 26.8856 18.1667 26.3333 18.1667H25.4783C25.3037 18.1667 25.1493 18.0554 25.0824 17.8942C25.0155 17.7328 25.0465 17.546 25.17 17.4225L25.7746 16.818C26.1651 16.4275 26.1651 15.7943 25.7746 15.4038L24.5961 14.2253C24.2055 13.8347 23.5724 13.8347 23.1819 14.2253L22.5772 14.8299C22.4537 14.9534 22.267 14.9844 22.1057 14.9175C21.9446 14.8507 21.8333 14.6963 21.8333 14.5218V13.6667ZM20 21.3333C20.7364 21.3333 21.3333 20.7364 21.3333 20C21.3333 19.2636 20.7364 18.6667 20 18.6667C19.2636 18.6667 18.6667 19.2636 18.6667 20C18.6667 20.7364 19.2636 21.3333 20 21.3333Z"/>
</mask>
<path d="M22.5772 14.8299L23.2843 15.537L22.5772 14.8299ZM24.5961 14.2253L25.3032 13.5182L24.5961 14.2253ZM23.1819 14.2253L22.4747 13.5182L23.1819 14.2253ZM25.7746 15.4038L25.0675 16.1109L25.7746 15.4038ZM25.17 17.4225L25.8771 18.1296L25.17 17.4225ZM17.4225 25.17L16.7154 24.4629L17.4225 25.17ZM16.8179 25.7747L16.1108 25.0676L16.8179 25.7747ZM14.2252 23.1819L13.5181 22.4748L14.2252 23.1819ZM14.2252 24.5962L13.5181 25.3033L14.2252 24.5962ZM14.8299 22.5772L14.1228 21.8701L14.8299 22.5772ZM14.83 17.4227L14.1228 18.1298L14.83 17.4227ZM14.2253 15.4038L13.5182 14.6967L14.2253 15.4038ZM14.2253 16.818L14.9324 16.1109L14.2253 16.818ZM19.1667 13.6667H20.8333V11.6667H19.1667V13.6667ZM19.1667 14.5217V13.6667L17.1667 13.6667V14.5217L19.1667 14.5217ZM16.1109 14.9324L16.7156 15.537L18.1298 14.1228L17.5251 13.5182L16.1109 14.9324ZM14.9324 16.1109L16.1109 14.9324L14.6967 13.5182L13.5182 14.6967L14.9324 16.1109ZM15.5371 16.7156L14.9324 16.1109L13.5182 17.5251L14.1228 18.1298L15.5371 16.7156ZM13.6667 19.1667H14.5218L14.5218 17.1667H13.6667L13.6667 19.1667ZM13.6667 20.8333L13.6667 19.1667H11.6667L11.6667 20.8333H13.6667ZM14.5218 20.8333H13.6667V22.8333H14.5218V20.8333ZM14.9323 23.8891L15.5371 23.2843L14.1228 21.8701L13.5181 22.4748L14.9323 23.8891ZM16.1108 25.0676L14.9323 23.8891L13.5181 25.3033L14.6966 26.4818L16.1108 25.0676ZM16.7154 24.4629L16.1108 25.0676L17.525 26.4818L18.1296 25.8771L16.7154 24.4629ZM19.1667 26.3333V25.4783H17.1667V26.3333H19.1667ZM20.8333 26.3333H19.1667L19.1667 28.3333H20.8333V26.3333ZM20.8333 25.4782V26.3333H22.8333V25.4782H20.8333ZM23.8891 25.0676L23.2844 24.4629L21.8702 25.8771L22.4749 26.4818L23.8891 25.0676ZM25.0676 23.8891L23.8891 25.0676L25.3033 26.4818L26.4818 25.3033L25.0676 23.8891ZM24.4629 23.2844L25.0676 23.8891L26.4818 22.4749L25.8772 21.8702L24.4629 23.2844ZM26.3333 20.8333H25.4782V22.8333H26.3333V20.8333ZM26.3333 19.1667V20.8333H28.3333V19.1667L26.3333 19.1667ZM25.4783 19.1667H26.3333V17.1667H25.4783V19.1667ZM25.0675 16.1109L24.4629 16.7154L25.8771 18.1296L26.4817 17.5251L25.0675 16.1109ZM23.889 14.9324L25.0675 16.1109L26.4817 14.6967L25.3032 13.5182L23.889 14.9324ZM23.2843 15.537L23.889 14.9324L22.4747 13.5182L21.8701 14.1228L23.2843 15.537ZM20.8333 13.6667V14.5218H22.8333V13.6667H20.8333ZM20.3333 20C20.3333 20.1841 20.1841 20.3333 20 20.3333V22.3333C21.2887 22.3333 22.3333 21.2887 22.3333 20H20.3333ZM20 19.6667C20.1841 19.6667 20.3333 19.8159 20.3333 20H22.3333C22.3333 18.7113 21.2887 17.6667 20 17.6667V19.6667ZM19.6667 20C19.6667 19.8159 19.8159 19.6667 20 19.6667V17.6667C18.7113 17.6667 17.6667 18.7113 17.6667 20H19.6667ZM20 20.3333C19.8159 20.3333 19.6667 20.1841 19.6667 20H17.6667C17.6667 21.2887 18.7113 22.3333 20 22.3333V20.3333ZM22.4889 13.9938C22.6708 14.0692 22.8333 14.2601 22.8333 14.5218H20.8333C20.8333 15.1325 21.2184 15.6321 21.7226 15.8412L22.4889 13.9938ZM21.8701 14.1228C22.0527 13.9402 22.3032 13.9168 22.4889 13.9938L21.7226 15.8412C22.2308 16.052 22.8547 15.9666 23.2843 15.537L21.8701 14.1228ZM25.3032 13.5182C24.5221 12.7371 23.2558 12.7371 22.4747 13.5182L23.889 14.9324L25.3032 13.5182ZM26.4817 17.5251C27.2627 16.744 27.2627 15.4777 26.4817 14.6967L25.0675 16.1109L25.0675 16.1109L26.4817 17.5251ZM26.0061 17.511C26.0831 17.6966 26.0598 17.947 25.8771 18.1296L24.4629 16.7154C24.0333 17.145 23.9479 17.769 24.1588 18.2773L26.0061 17.511ZM25.4783 17.1667C25.7399 17.1667 25.9307 17.3292 26.0061 17.511L24.1588 18.2773C24.3679 18.7816 24.8675 19.1667 25.4783 19.1667V17.1667ZM28.3333 19.1667C28.3333 18.0621 27.4379 17.1667 26.3333 17.1667V19.1667H26.3333L28.3333 19.1667ZM26.3333 22.8333C27.4379 22.8333 28.3333 21.9379 28.3333 20.8333H26.3333V22.8333ZM26.0062 22.4889C25.9307 22.6708 25.7399 22.8333 25.4782 22.8333V20.8333C24.8675 20.8333 24.3679 21.2184 24.1588 21.7226L26.0062 22.4889ZM25.8772 21.8702C26.0598 22.0529 26.0832 22.3033 26.0062 22.4889L24.1588 21.7226C23.948 22.2309 24.0333 22.8548 24.4629 23.2844L25.8772 21.8702ZM26.4818 25.3033C27.2629 24.5223 27.2629 23.2559 26.4818 22.4749L25.0676 23.8891V23.8891L26.4818 25.3033ZM22.4749 26.4818C23.2559 27.2629 24.5223 27.2629 25.3033 26.4818L23.8891 25.0676L23.8891 25.0676L22.4749 26.4818ZM22.4889 26.0062C22.3033 26.0832 22.0528 26.0598 21.8702 25.8771L23.2844 24.4629C22.8548 24.0333 22.2309 23.948 21.7226 24.1588L22.4889 26.0062ZM22.8333 25.4782C22.8333 25.7399 22.6708 25.9307 22.4889 26.0062L21.7226 24.1588C21.2184 24.3679 20.8333 24.8675 20.8333 25.4782H22.8333ZM20.8333 28.3333C21.9379 28.3333 22.8333 27.4379 22.8333 26.3333H20.8333V28.3333ZM17.1667 26.3333C17.1667 27.4379 18.0621 28.3333 19.1667 28.3333L19.1667 26.3333H19.1667H17.1667ZM17.511 26.0061C17.3292 25.9307 17.1667 25.7399 17.1667 25.4783H19.1667C19.1667 24.8675 18.7816 24.3679 18.2773 24.1587L17.511 26.0061ZM18.1296 25.8771C17.947 26.0598 17.6966 26.0831 17.511 26.0061L18.2773 24.1587C17.769 23.9479 17.1451 24.0333 16.7154 24.4629L18.1296 25.8771ZM14.6966 26.4818C15.4776 27.2628 16.744 27.2628 17.525 26.4818L16.1108 25.0676L14.6966 26.4818ZM13.5181 22.4748C12.737 23.2559 12.737 24.5222 13.5181 25.3033L14.9323 23.8891L14.9323 23.8891L13.5181 22.4748ZM13.9938 22.4889C13.9168 22.3032 13.9402 22.0527 14.1228 21.8701L15.5371 23.2843C15.9666 22.8547 16.052 22.2308 15.8412 21.7226L13.9938 22.4889ZM14.5218 22.8333C14.2601 22.8333 14.0693 22.6707 13.9938 22.4889L15.8412 21.7226C15.6321 21.2184 15.1325 20.8333 14.5218 20.8333V22.8333ZM11.6667 20.8333C11.6667 21.9379 12.5621 22.8333 13.6667 22.8333V20.8333H13.6667H11.6667ZM13.6667 17.1667C12.5621 17.1667 11.6667 18.0621 11.6667 19.1667H13.6667L13.6667 19.1667L13.6667 17.1667ZM13.9938 17.5111C14.0693 17.3292 14.2601 17.1667 14.5218 17.1667L14.5218 19.1667C15.1325 19.1667 15.6321 18.7816 15.8412 18.2773L13.9938 17.5111ZM14.1228 18.1298C13.9402 17.9471 13.9168 17.6967 13.9938 17.5111L15.8412 18.2773C16.052 17.7691 15.9667 17.1452 15.5371 16.7156L14.1228 18.1298ZM13.5182 14.6967C12.7372 15.4778 12.7372 16.7441 13.5182 17.5251L14.9324 16.1109H14.9324L13.5182 14.6967ZM17.5251 13.5182C16.7441 12.7372 15.4778 12.7372 14.6967 13.5182L16.1109 14.9324L16.1109 14.9324L17.5251 13.5182ZM17.5111 13.9938C17.6967 13.9168 17.9471 13.9402 18.1298 14.1228L16.7156 15.537C17.1452 15.9666 17.7691 16.052 18.2773 15.8412L17.5111 13.9938ZM17.1667 14.5217C17.1667 14.2601 17.3292 14.0693 17.5111 13.9938L18.2773 15.8412C18.7816 15.6321 19.1667 15.1325 19.1667 14.5217L17.1667 14.5217ZM20.8333 13.6667H20.8333H22.8333C22.8333 12.5621 21.9379 11.6667 20.8333 11.6667V13.6667ZM19.1667 11.6667C18.0621 11.6667 17.1667 12.5621 17.1667 13.6667L19.1667 13.6667V11.6667Z" fill="white" mask="url(#path-2-inside-1_261_2440)"/>
</svg>
