<svg width="40" height="40" viewBox="0 0 40 40" fill="none" xmlns="http://www.w3.org/2000/svg">
<path d="M0 8C0 3.58172 3.58172 0 8 0H32C36.4183 0 40 3.58172 40 8V32C40 36.4183 36.4183 40 32 40H8C3.58172 40 0 36.4183 0 32V8Z" fill="white" fill-opacity="0.1"/>
<path fill-rule="evenodd" clip-rule="evenodd" d="M20.5143 13.1905C20.2289 12.9098 19.7711 12.9098 19.4857 13.1905L12.2857 20.2732C11.997 20.5572 11.9932 21.0215 12.2772 21.3103C12.5612 21.599 13.0255 21.6028 13.3143 21.3188L14 20.6442V26.3533C14 26.7215 14.2985 27.02 14.6667 27.02H25.3333C25.7015 27.02 26 26.7215 26 26.3533V20.6442L26.6857 21.3188C26.9744 21.6028 27.4387 21.599 27.7228 21.3103C28.0068 21.0215 28.003 20.5572 27.7143 20.2732L20.5143 13.1905ZM15.3333 25.6867L15.3333 19.3326L20 14.742L24.6667 19.3326V25.6867H22.8V22.0867C22.8 21.7185 22.5015 21.42 22.1333 21.42H18.9333C18.5651 21.42 18.2667 21.7185 18.2667 22.0867V25.6867H15.3333ZM19.6 25.6867V22.7533H21.4667V25.6867H19.6Z" fill="white"/>
<path d="M8 1H32V-1H8V1ZM39 8V32H41V8H39ZM32 39H8V41H32V39ZM1 32V8H-1V32H1ZM8 39C4.13401 39 1 35.866 1 32H-1C-1 36.9706 3.02944 41 8 41V39ZM39 32C39 35.866 35.866 39 32 39V41C36.9706 41 41 36.9706 41 32H39ZM32 1C35.866 1 39 4.13401 39 8H41C41 3.02944 36.9706 -1 32 -1V1ZM8 -1C3.02944 -1 -1 3.02944 -1 8H1C1 4.13401 4.13401 1 8 1V-1Z" fill="#FA00FF"/>
</svg>
