<svg width="40" height="40" viewBox="0 0 40 40" fill="none" xmlns="http://www.w3.org/2000/svg">
<path d="M0 8C0 3.58172 3.58172 0 8 0H32C36.4183 0 40 3.58172 40 8V32C40 36.4183 36.4183 40 32 40H8C3.58172 40 0 36.4183 0 32V8Z" fill="white" fill-opacity="0.1"/>
<path fill-rule="evenodd" clip-rule="evenodd" d="M14.0992 18.1547L15.4325 15.8453L15.6285 15.9585C16.9619 16.7282 18.6285 15.766 18.6285 14.2264L18.6285 14L21.2952 14L21.2952 14.2265C21.2952 15.7661 22.9619 16.7283 24.2952 15.9585L24.4914 15.8453L25.8247 18.1547L25.6286 18.2679C24.2953 19.0377 24.2953 20.9622 25.6286 21.732L25.8248 21.8453L24.4915 24.1547L24.2952 24.0414C22.9619 23.2716 21.2952 24.2338 21.2952 25.7734L21.2952 26L18.6285 26L18.6285 25.7735C18.6285 24.2339 16.9619 23.2717 15.6285 24.0415L15.4324 24.1547L14.0991 21.8453L14.2953 21.732C15.6286 20.9622 15.6286 19.0377 14.2953 18.2679L14.0992 18.1547ZM14.6111 14.6012C14.7952 14.2824 15.2029 14.1731 15.5218 14.3572L16.2952 14.8038C16.7396 15.0604 17.2952 14.7396 17.2952 14.2264L17.2952 13.3333C17.2952 12.9651 17.5937 12.6666 17.9619 12.6666L21.9619 12.6666C22.3301 12.6666 22.6285 12.9651 22.6285 13.3333L22.6285 14.2265C22.6285 14.7397 23.1841 15.0604 23.6285 14.8038L24.4021 14.3572C24.721 14.1731 25.1287 14.2824 25.3128 14.6012L27.3128 18.0654C27.4969 18.3842 27.3876 18.7919 27.0688 18.976L26.2953 19.4226C25.8508 19.6792 25.8508 20.3207 26.2953 20.5773L27.0688 21.0239C27.3877 21.208 27.4969 21.6157 27.3128 21.9346L25.3128 25.3987C25.1287 25.7175 24.721 25.8268 24.4021 25.6427L23.6285 25.1961C23.1841 24.9395 22.6285 25.2602 22.6285 25.7734L22.6285 26.6666C22.6285 27.0348 22.3301 27.3333 21.9619 27.3333L17.9619 27.3333C17.5937 27.3333 17.2952 27.0348 17.2952 26.6666L17.2952 25.7735C17.2952 25.2603 16.7396 24.9396 16.2952 25.1962L15.5218 25.6427C15.2029 25.8268 14.7952 25.7175 14.6111 25.3987L12.6111 21.9346C12.427 21.6157 12.5362 21.208 12.8551 21.0239L13.6286 20.5773C14.0731 20.3207 14.0731 19.6792 13.6286 19.4226L12.8551 18.976C12.5363 18.7919 12.427 18.3842 12.6111 18.0653L14.6111 14.6012ZM20.0191 21.3333C19.3022 21.3333 18.7048 20.7454 18.7048 20C18.7048 19.2546 19.3022 18.6666 20.0191 18.6666C20.736 18.6666 21.3334 19.2546 21.3334 20C21.3334 20.7454 20.736 21.3333 20.0191 21.3333ZM20.0191 22.6666C18.5569 22.6666 17.3715 21.4727 17.3715 20C17.3715 18.5272 18.5569 17.3333 20.0191 17.3333C21.4814 17.3333 22.6667 18.5272 22.6667 20C22.6667 21.4727 21.4814 22.6666 20.0191 22.6666Z" fill="white"/>
<path d="M8 1H32V-1H8V1ZM39 8V32H41V8H39ZM32 39H8V41H32V39ZM1 32V8H-1V32H1ZM8 39C4.13401 39 1 35.866 1 32H-1C-1 36.9706 3.02944 41 8 41V39ZM39 32C39 35.866 35.866 39 32 39V41C36.9706 41 41 36.9706 41 32H39ZM32 1C35.866 1 39 4.13401 39 8H41C41 3.02944 36.9706 -1 32 -1V1ZM8 -1C3.02944 -1 -1 3.02944 -1 8H1C1 4.13401 4.13401 1 8 1V-1Z" fill="#FA00FF"/>
</svg>
