<svg width="24" height="24" viewBox="0 0 24 24" fill="none" xmlns="http://www.w3.org/2000/svg">
<path fill-rule="evenodd" clip-rule="evenodd" d="M5 1.3999C3.89543 1.3999 3 2.29533 3 3.3999V20.5999C3 21.7045 3.89543 22.5999 5 22.5999H19C20.1046 22.5999 21 21.7045 21 20.5999V7.61412C21 7.08368 20.7893 6.57497 20.4142 6.1999L16.2 1.98569C15.8249 1.61062 15.3162 1.3999 14.7858 1.3999H5ZM5 3.3999H14.7858L19 7.61412V20.5999H5V3.3999ZM8.19995 6.19992C7.64767 6.19992 7.19995 6.64764 7.19995 7.19992C7.19995 7.75221 7.64767 8.19992 8.19995 8.19992H12C12.5522 8.19992 13 7.75221 13 7.19992C13 6.64764 12.5522 6.19992 12 6.19992H8.19995ZM8.19995 10.9999C7.64767 10.9999 7.19995 11.4476 7.19995 11.9999C7.19995 12.5522 7.64767 12.9999 8.19995 12.9999H15.7999C16.3522 12.9999 16.7999 12.5522 16.7999 11.9999C16.7999 11.4476 16.3522 10.9999 15.7999 10.9999H8.19995ZM8.19995 15.7999C7.64767 15.7999 7.19995 16.2476 7.19995 16.7999C7.19995 17.3522 7.64767 17.7999 8.19995 17.7999H15.7999C16.3522 17.7999 16.7999 17.3522 16.7999 16.7999C16.7999 16.2476 16.3522 15.7999 15.7999 15.7999H8.19995Z" fill="#008CF4"/>
</svg>
