<svg width="25" height="24" viewBox="0 0 25 24" fill="none" xmlns="http://www.w3.org/2000/svg">
<path fill-rule="evenodd" clip-rule="evenodd" d="M1.5 3C0.671573 3 0 3.67157 0 4.5V19.5C0 20.3284 0.671571 21 1.5 21H22.9C23.7284 21 24.4 20.3284 24.4 19.5V4.5C24.4 3.67157 23.7284 3 22.9 3H1.5ZM2 6.071V5H22.4V6.071C22.2933 6.09397 22.1887 6.13589 22.091 6.19789L12.2 12.4748L2.30903 6.19789C2.21134 6.13589 2.10674 6.09397 2 6.071ZM12.709 14.4021L22.4 8.25207L22.4 19H2V8.25208L11.691 14.4021C12.0017 14.5993 12.3983 14.5993 12.709 14.4021Z" fill="#008CF4"/>
</svg>
