<svg width="24" height="24" viewBox="0 0 24 24" fill="none" xmlns="http://www.w3.org/2000/svg">
<mask id="path-1-inside-1_261_2416" fill="white">
<path fill-rule="evenodd" clip-rule="evenodd" d="M14.75 2C14.75 1.44772 14.3023 1 13.75 1H10.25C9.69772 1 9.25 1.44771 9.25 2V3.78264C9.25 4.04442 9.08311 4.276 8.84131 4.3763C8.59936 4.47666 8.31922 4.43015 8.13401 4.24493L6.87351 2.98444C6.48299 2.59391 5.84982 2.59391 5.4593 2.98444L2.98443 5.45931C2.5939 5.84983 2.5939 6.483 2.98442 6.87352L4.24493 8.13403C4.43014 8.31924 4.47665 8.59937 4.3763 8.84132C4.276 9.08312 4.04442 9.25 3.78264 9.25H2C1.44772 9.25 1 9.69771 1 10.25V13.75C1 14.3023 1.44772 14.75 2 14.75H3.78272C4.04445 14.75 4.27599 14.9169 4.37627 15.1586C4.4766 15.4005 4.4301 15.6806 4.24492 15.8658L2.9842 17.1265C2.59368 17.517 2.59368 18.1502 2.9842 18.5407L5.45908 21.0156C5.8496 21.4061 6.48276 21.4061 6.87329 21.0156L8.1338 19.7551C8.31906 19.5698 8.59925 19.5233 8.84124 19.6237C9.08309 19.724 9.25 19.9556 9.25 20.2174V22C9.25 22.5523 9.69772 23 10.25 23H13.75C14.3023 23 14.75 22.5523 14.75 22V20.2174C14.75 19.9556 14.9169 19.724 15.1587 19.6237C15.4006 19.5233 15.6808 19.5699 15.866 19.7551L17.1266 21.0157C17.5171 21.4062 18.1502 21.4062 18.5408 21.0157L21.0156 18.5408C21.4062 18.1503 21.4062 17.5171 21.0156 17.1266L19.7551 15.866C19.5699 15.6808 19.5233 15.4006 19.6237 15.1587C19.724 14.9169 19.9556 14.75 20.2174 14.75H22C22.5523 14.75 23 14.3023 23 13.75V10.25C23 9.69772 22.5523 9.25 22 9.25H20.2174C19.9556 9.25 19.724 9.08309 19.6237 8.84124C19.5233 8.59925 19.5698 8.31906 19.7551 8.1338L21.0154 6.87344C21.406 6.48292 21.406 5.84975 21.0154 5.45923L18.5406 2.98435C18.15 2.59383 17.5169 2.59383 17.1263 2.98435L15.8658 4.24492C15.6806 4.4301 15.4005 4.4766 15.1586 4.37627C14.9169 4.27599 14.75 4.04445 14.75 3.78272V2ZM12 14C13.1046 14 14 13.1046 14 12C14 10.8954 13.1046 10 12 10C10.8954 10 10 10.8954 10 12C10 13.1046 10.8954 14 12 14Z"/>
</mask>
<path d="M15.8658 4.24492L15.1587 3.53781L15.8658 4.24492ZM18.5406 2.98435L19.2477 2.27725L18.5406 2.98435ZM21.0154 6.87344L21.7225 7.58055L21.0154 6.87344ZM19.7551 8.1338L20.4622 8.84091L19.7551 8.1338ZM19.7551 15.866L19.048 16.5731L19.7551 15.866ZM21.0156 17.1266L21.7228 16.4195L21.0156 17.1266ZM17.1266 21.0157L16.4195 21.7228L17.1266 21.0157ZM15.866 19.7551L16.5731 19.048L15.866 19.7551ZM8.1338 19.7551L7.4267 19.048L8.1338 19.7551ZM5.45908 21.0156L4.75197 21.7227L5.45908 21.0156ZM6.87329 21.0156L6.16618 20.3085L6.87329 21.0156ZM2.9842 17.1265L2.2771 16.4194L2.9842 17.1265ZM2.9842 18.5407L2.2771 19.2478L2.9842 18.5407ZM4.24492 15.8658L3.53781 15.1587L4.24492 15.8658ZM4.24493 8.13403L4.95204 7.42692L4.24493 8.13403ZM5.4593 2.98444L4.75219 2.27733L5.4593 2.98444ZM8.13401 4.24493L7.4269 4.95204L8.13401 4.24493ZM10.25 2H13.75V0H10.25V2ZM10.25 3.78264V2H8.25V3.78264H10.25ZM6.16641 3.69154L7.4269 4.95204L8.84111 3.53782L7.58062 2.27733L6.16641 3.69154ZM3.69153 6.16642L6.16641 3.69154L4.75219 2.27733L2.27732 4.7522L3.69153 6.16642ZM4.95204 7.42692L3.69153 6.16642L2.27732 7.58063L3.53782 8.84113L4.95204 7.42692ZM2 10.25H3.78264V8.25H2V10.25ZM2 13.75V10.25H0V13.75H2ZM3.78272 13.75H2V15.75H3.78272V13.75ZM3.69131 17.8336L4.95203 16.5729L3.53781 15.1587L2.2771 16.4194L3.69131 17.8336ZM6.16618 20.3085L3.69131 17.8336L2.2771 19.2478L4.75197 21.7227L6.16618 20.3085ZM7.4267 19.048L6.16618 20.3085L7.5804 21.7227L8.84091 20.4622L7.4267 19.048ZM10.25 22V20.2174H8.25V22H10.25ZM13.75 22H10.25V24H13.75V22ZM13.75 20.2174V22H15.75V20.2174H13.75ZM17.8337 20.3086L16.5731 19.048L15.1589 20.4622L16.4195 21.7228L17.8337 20.3086ZM20.3085 17.8337L17.8337 20.3086L19.2479 21.7228L21.7228 19.2479L20.3085 17.8337ZM19.048 16.5731L20.3085 17.8337L21.7228 16.4195L20.4622 15.1589L19.048 16.5731ZM22 13.75H20.2174V15.75H22V13.75ZM22 10.25V13.75H24V10.25H22ZM20.2174 10.25H22V8.25H20.2174V10.25ZM20.3083 6.16633L19.048 7.4267L20.4622 8.84091L21.7225 7.58055L20.3083 6.16633ZM17.8334 3.69146L20.3083 6.16633L21.7225 4.75212L19.2477 2.27725L17.8334 3.69146ZM16.5729 4.95203L17.8334 3.69146L16.4192 2.27725L15.1587 3.53781L16.5729 4.95203ZM13.75 2V3.78272H15.75V2H13.75ZM13 12C13 12.5523 12.5523 13 12 13V15C13.6569 15 15 13.6569 15 12H13ZM12 11C12.5523 11 13 11.4477 13 12H15C15 10.3431 13.6569 9 12 9V11ZM11 12C11 11.4477 11.4477 11 12 11V9C10.3431 9 9 10.3431 9 12H11ZM12 13C11.4477 13 11 12.5523 11 12H9C9 13.6569 10.3431 15 12 15V13ZM15.5417 3.45257C15.643 3.49459 15.75 3.60825 15.75 3.78272H13.75C13.75 4.48065 14.1907 5.05739 14.7755 5.29996L15.5417 3.45257ZM15.1587 3.53781C15.2796 3.41688 15.4367 3.409 15.5417 3.45257L14.7755 5.29996C15.3643 5.5442 16.0816 5.44332 16.5729 4.95203L15.1587 3.53781ZM19.2477 2.27725C18.4666 1.4962 17.2003 1.4962 16.4192 2.27725L17.8334 3.69146V3.69146L19.2477 2.27725ZM21.7225 7.58055C22.5036 6.7995 22.5036 5.53317 21.7225 4.75212L20.3083 6.16633L21.7225 7.58055ZM20.5474 8.45809C20.5909 8.56303 20.583 8.72004 20.4622 8.84091L19.048 7.4267C18.5566 7.91808 18.4557 8.63546 18.7 9.22439L20.5474 8.45809ZM20.2174 8.25C20.3918 8.25 20.5054 8.3569 20.5474 8.45809L18.7 9.22439C18.9426 9.80927 19.5194 10.25 20.2174 10.25V8.25ZM24 10.25C24 9.14543 23.1046 8.25 22 8.25V10.25H22H24ZM22 15.75C23.1046 15.75 24 14.8546 24 13.75H22V15.75ZM20.5474 15.5418C20.5054 15.6431 20.3918 15.75 20.2174 15.75V13.75C19.5194 13.75 18.9426 14.1907 18.7 14.7756L20.5474 15.5418ZM20.4622 15.1589C20.5831 15.2798 20.5909 15.4368 20.5474 15.5418L18.7 14.7756C18.4557 15.3644 18.5566 16.0818 19.048 16.5731L20.4622 15.1589ZM21.7228 19.2479C22.5038 18.4668 22.5038 17.2005 21.7228 16.4195L20.3085 17.8337L21.7228 19.2479ZM16.4195 21.7228C17.2005 22.5038 18.4668 22.5038 19.2479 21.7228L17.8337 20.3086L16.4195 21.7228ZM15.5418 20.5474C15.4368 20.5909 15.2798 20.5831 15.1589 20.4622L16.5731 19.048C16.0817 18.5566 15.3644 18.4557 14.7755 18.7L15.5418 20.5474ZM15.75 20.2174C15.75 20.3918 15.6431 20.5054 15.5418 20.5474L14.7755 18.7C14.1907 18.9426 13.75 19.5194 13.75 20.2174H15.75ZM13.75 24C14.8546 24 15.75 23.1046 15.75 22H13.75V22V24ZM8.25 22C8.25 23.1046 9.14543 24 10.25 24V22H8.25ZM8.45809 20.5474C8.3569 20.5054 8.25 20.3918 8.25 20.2174H10.25C10.25 19.5194 9.80927 18.9426 9.22439 18.7L8.45809 20.5474ZM8.84091 20.4622C8.72004 20.583 8.56303 20.5909 8.45809 20.5474L9.22439 18.7C8.63546 18.4557 7.91808 18.5566 7.4267 19.048L8.84091 20.4622ZM4.75197 21.7227C5.53302 22.5037 6.79935 22.5037 7.5804 21.7227L6.16618 20.3085H6.16618L4.75197 21.7227ZM2.2771 16.4194C1.49605 17.2004 1.49605 18.4668 2.2771 19.2478L3.69131 17.8336L2.2771 16.4194ZM3.45257 15.5417C3.409 15.4367 3.41688 15.2796 3.53781 15.1587L4.95203 16.5729C5.44332 16.0816 5.5442 15.3643 5.29996 14.7755L3.45257 15.5417ZM3.78272 15.75C3.60825 15.75 3.49459 15.643 3.45257 15.5417L5.29996 14.7755C5.05739 14.1907 4.48065 13.75 3.78272 13.75V15.75ZM0 13.75C0 14.8546 0.895433 15.75 2 15.75V13.75H2H0ZM2 8.25C0.895431 8.25 0 9.14543 0 10.25H2V8.25ZM3.45261 8.45818C3.4946 8.35693 3.60822 8.25 3.78264 8.25V10.25C4.48062 10.25 5.0574 9.8093 5.29999 9.22445L3.45261 8.45818ZM3.53782 8.84113C3.41692 8.72023 3.40906 8.56317 3.45261 8.45818L5.29999 9.22445C5.54425 8.63557 5.44337 7.91825 4.95204 7.42692L3.53782 8.84113ZM2.27732 4.7522C1.49627 5.53325 1.49627 6.79958 2.27732 7.58063L3.69153 6.16642L3.69153 6.16642L2.27732 4.7522ZM7.58062 2.27733C6.79957 1.49628 5.53324 1.49628 4.75219 2.27733L6.16641 3.69154V3.69154L7.58062 2.27733ZM8.45817 3.45261C8.56316 3.40906 8.72021 3.41692 8.84111 3.53782L7.4269 4.95204C7.91824 5.44337 8.63556 5.54426 9.22445 5.29999L8.45817 3.45261ZM8.25 3.78264C8.25 3.60822 8.35693 3.4946 8.45817 3.45261L9.22445 5.29999C9.8093 5.0574 10.25 4.48062 10.25 3.78264H8.25ZM13.75 2V2H15.75C15.75 0.89543 14.8546 0 13.75 0V2ZM10.25 0C9.14543 0 8.25 0.895428 8.25 2H10.25V2V0Z" fill="white" mask="url(#path-1-inside-1_261_2416)"/>
</svg>
