<svg width="40" height="40" viewBox="0 0 40 40" fill="none" xmlns="http://www.w3.org/2000/svg">
<rect x="0.5" y="0.5" width="39" height="39" rx="7.5" fill="white" fill-opacity="0.1"/>
<path fill-rule="evenodd" clip-rule="evenodd" d="M20.6658 13.3667C20.8782 13.388 21.09 13.4195 21.3006 13.4614C22.5938 13.7187 23.7817 14.3536 24.714 15.286C24.7799 15.3518 24.8443 15.419 24.9072 15.4873C24.7602 15.6096 24.6667 15.7939 24.6667 16C24.6667 16.3682 24.9651 16.6667 25.3333 16.6667C25.4715 16.6667 25.5998 16.6247 25.7062 16.5527C26.104 17.2112 26.3869 17.937 26.5386 18.6994C26.5805 18.91 26.612 19.1218 26.6333 19.3342C26.2806 19.3515 26 19.643 26 20C26 20.357 26.2806 20.6485 26.6333 20.6658C26.5686 21.3106 26.4099 21.946 26.1592 22.5512C25.6546 23.7694 24.8001 24.8106 23.7038 25.5431C22.6075 26.2757 21.3185 26.6667 20 26.6667C19.6318 26.6667 19.3333 26.9651 19.3333 27.3333C19.3333 27.7015 19.6318 28 20 28C21.5823 28 23.129 27.5308 24.4446 26.6518C25.7602 25.7727 26.7855 24.5233 27.391 23.0615C27.9965 21.5997 28.155 19.9911 27.8463 18.4393C27.5376 16.8874 26.7757 15.462 25.6569 14.3431C24.538 13.2243 23.1126 12.4624 21.5607 12.1537C20.0089 11.845 18.4003 12.0035 16.9385 12.609C15.4767 13.2145 14.2273 14.2398 13.3482 15.5554C12.4692 16.871 12 18.4178 12 20C12 20.3682 12.2985 20.6667 12.6667 20.6667H14.6667C15.0349 20.6667 15.3333 20.3682 15.3333 20C15.3333 19.6318 15.0349 19.3333 14.6667 19.3333H13.3667C13.4655 18.3507 13.7816 17.4006 14.2938 16.5527C14.4002 16.6247 14.5285 16.6667 14.6667 16.6667C15.0349 16.6667 15.3333 16.3682 15.3333 16C15.3333 15.7939 15.2398 15.6096 15.0928 15.4873C15.7463 14.7767 16.5493 14.2134 17.4488 13.8408C18.054 13.5901 18.6894 13.4314 19.3342 13.3667C19.3515 13.7194 19.643 14 20 14C20.357 14 20.6485 13.7194 20.6658 13.3667ZM22.866 15.1667L21.1301 19.5351C21.2597 19.7721 21.3333 20.0441 21.3333 20.3333C21.3333 21.2538 20.5871 22 19.6667 22C18.7462 22 18 21.2538 18 20.3333C18 19.4129 18.7462 18.6667 19.6667 18.6667C19.8028 18.6667 19.9352 18.683 20.0618 18.7138L22.866 15.1667Z" fill="white"/>
<rect x="0.5" y="0.5" width="39" height="39" rx="7.5" stroke="#FA00FF"/>
</svg>
