<svg width="41" height="40" viewBox="0 0 41 40" fill="none" xmlns="http://www.w3.org/2000/svg">
<path d="M0.75 8C0.75 3.58172 4.33172 0 8.75 0H32.75C37.1683 0 40.75 3.58172 40.75 8V32C40.75 36.4183 37.1683 40 32.75 40H8.75C4.33172 40 0.75 36.4183 0.75 32V8Z" fill="white" fill-opacity="0.1"/>
<path fill-rule="evenodd" clip-rule="evenodd" d="M14.7834 15.1667C14.2312 15.1667 13.7834 15.6145 13.7834 16.1667L13.7834 23.8334C13.7834 24.3857 14.2312 24.8334 14.7834 24.8334H26.7168C27.2691 24.8334 27.7168 24.3857 27.7168 23.8334V16.1667C27.7168 15.6145 27.2691 15.1667 26.7168 15.1667L14.7834 15.1667ZM12.7834 16.1667C12.7834 15.0622 13.6789 14.1667 14.7834 14.1667L26.7168 14.1667C27.8213 14.1667 28.7168 15.0622 28.7168 16.1667V23.8334C28.7168 24.938 27.8213 25.8334 26.7168 25.8334H14.7834C13.6789 25.8334 12.7834 24.938 12.7834 23.8334L12.7834 16.1667ZM14.8834 17.2667C14.8834 16.7145 15.3312 16.2667 15.8834 16.2667H17.0834C17.6357 16.2667 18.0834 16.7145 18.0834 17.2667V17.4049C18.0834 17.9572 17.6357 18.4049 17.0834 18.4049H15.8834C15.3312 18.4049 14.8834 17.9572 14.8834 17.4049V17.2667ZM25.7246 20.0899C25.7246 21.659 24.4525 22.931 22.8834 22.931C21.3143 22.931 20.0423 21.659 20.0423 20.0899C20.0423 18.5208 21.3143 17.2488 22.8834 17.2488C24.4525 17.2488 25.7246 18.5208 25.7246 20.0899ZM26.7246 20.0899C26.7246 22.2113 25.0048 23.931 22.8834 23.931C20.762 23.931 19.0423 22.2113 19.0423 20.0899C19.0423 17.9685 20.762 16.2488 22.8834 16.2488C25.0048 16.2488 26.7246 17.9685 26.7246 20.0899Z" fill="white"/>
</svg>
