<svg width="40" height="40" viewBox="0 0 40 40" fill="none" xmlns="http://www.w3.org/2000/svg">
<path d="M0 8C0 3.58172 3.58172 0 8 0H32C36.4183 0 40 3.58172 40 8V32C40 36.4183 36.4183 40 32 40H8C3.58172 40 0 36.4183 0 32V8Z" fill="white" fill-opacity="0.1"/>
<path fill-rule="evenodd" clip-rule="evenodd" d="M25.75 14H22.25V15.7826C22.25 16.4806 21.8093 17.0574 21.2244 17.3C20.6356 17.5443 19.9182 17.4434 19.4269 16.952L18.1664 15.6915L15.6915 18.1664L16.952 19.4269C17.4434 19.9183 17.5443 20.6356 17.3 21.2245C17.0574 21.8093 16.4806 22.25 15.7826 22.25H14V25.75H15.7827C16.4806 25.75 17.0574 26.1907 17.3 26.7755C17.5442 27.3643 17.4433 28.0816 16.952 28.5729L15.6913 29.8336L18.1662 32.3085L19.4267 31.048C19.9181 30.5566 20.6355 30.4557 21.2244 30.7C21.8093 30.9426 22.25 31.5194 22.25 32.2174V34H25.75V32.2174C25.75 31.5194 26.1907 30.9426 26.7755 30.7C27.3644 30.4557 28.0817 30.5566 28.5731 31.048L29.8337 32.3086L32.3085 29.8337L31.048 28.5731C30.5566 28.0818 30.4557 27.3644 30.7 26.7756C30.9426 26.1907 31.5194 25.75 32.2174 25.75H34V22.25H32.2174C31.5194 22.25 30.9426 21.8093 30.7 21.2244C30.4557 20.6355 30.5566 19.9181 31.048 19.4267L32.3083 18.1663L29.8334 15.6915L28.5729 16.952C28.0816 17.4433 27.3643 17.5442 26.7755 17.3C26.1907 17.0574 25.75 16.4806 25.75 15.7827V14ZM27 24C27 25.6569 25.6569 27 24 27C22.3431 27 21 25.6569 21 24C21 22.3431 22.3431 21 24 21C25.6569 21 27 22.3431 27 24ZM25.75 13C26.3023 13 26.75 13.4477 26.75 14V15.7827C26.75 16.0445 26.9169 16.276 27.1586 16.3763C27.4005 16.4766 27.6806 16.4301 27.8658 16.2449L29.1263 14.9844C29.5169 14.5938 30.15 14.5938 30.5406 14.9844L33.0154 17.4592C33.406 17.8498 33.406 18.4829 33.0154 18.8734L31.7551 20.1338C31.5698 20.3191 31.5233 20.5992 31.6237 20.8412C31.724 21.0831 31.9556 21.25 32.2174 21.25H34C34.5523 21.25 35 21.6977 35 22.25V25.75C35 26.3023 34.5523 26.75 34 26.75H32.2174C31.9556 26.75 31.724 26.9169 31.6237 27.1587C31.5233 27.4006 31.5699 27.6808 31.7551 27.866L33.0156 29.1266C33.4062 29.5171 33.4062 30.1503 33.0156 30.5408L30.5408 33.0157C30.1502 33.4062 29.5171 33.4062 29.1266 33.0157L27.866 31.7551C27.6808 31.5699 27.4006 31.5233 27.1587 31.6237C26.9169 31.724 26.75 31.9556 26.75 32.2174V34C26.75 34.5523 26.3023 35 25.75 35H22.25C21.6977 35 21.25 34.5523 21.25 34V32.2174C21.25 31.9556 21.0831 31.724 20.8412 31.6237C20.5992 31.5233 20.3191 31.5698 20.1338 31.7551L18.8733 33.0156C18.4828 33.4061 17.8496 33.4061 17.4591 33.0156L14.9842 30.5407C14.5937 30.1502 14.5937 29.517 14.9842 29.1265L16.2449 27.8658C16.4301 27.6806 16.4766 27.4005 16.3763 27.1586C16.276 26.9169 16.0444 26.75 15.7827 26.75H14C13.4477 26.75 13 26.3023 13 25.75V22.25C13 21.6977 13.4477 21.25 14 21.25H15.7826C16.0444 21.25 16.276 21.0831 16.3763 20.8413C16.4767 20.5994 16.4301 20.3192 16.2449 20.134L14.9844 18.8735C14.5939 18.483 14.5939 17.8498 14.9844 17.4593L17.4593 14.9844C17.8498 14.5939 18.483 14.5939 18.8735 14.9844L20.134 16.2449C20.3192 16.4301 20.5994 16.4767 20.8413 16.3763C21.0831 16.276 21.25 16.0444 21.25 15.7826V14C21.25 13.4477 21.6977 13 22.25 13H25.75ZM26 24C26 25.1046 25.1046 26 24 26C22.8954 26 22 25.1046 22 24C22 22.8954 22.8954 22 24 22C25.1046 22 26 22.8954 26 24Z" fill="white"/>
</svg>
