<svg width="24" height="24" viewBox="0 0 24 24" fill="none" xmlns="http://www.w3.org/2000/svg">
<path fill-rule="evenodd" clip-rule="evenodd" d="M11.4794 1.25171L11.4585 1.30199L8.89632 7.46213C8.85312 7.566 8.75544 7.63698 8.6433 7.64597L1.99291 8.17912L1.93863 8.18348L1.60709 8.21005L1.3063 8.23417C1.0403 8.25549 0.932443 8.58745 1.1351 8.76105L1.36427 8.95736L1.61687 9.17373L1.65823 9.20916L6.72513 13.5495C6.81056 13.6227 6.84788 13.7375 6.82177 13.8469L5.27375 20.3366L5.26112 20.3896L5.18395 20.7131L5.11393 21.0066C5.05201 21.2662 5.33439 21.4713 5.56212 21.3322L5.81964 21.175L6.10348 21.0016L6.14996 20.9732L11.8436 17.4955C11.9396 17.4369 12.0604 17.4369 12.1564 17.4955L17.85 20.9732L17.8965 21.0016L18.1804 21.175L18.4379 21.3322C18.6656 21.4713 18.948 21.2662 18.8861 21.0066L18.816 20.7131L18.7389 20.3896L18.7262 20.3366L17.1782 13.8469C17.1521 13.7375 17.1894 13.6227 17.2749 13.5495L22.3418 9.20916L22.3831 9.17373L22.6357 8.95736L22.8649 8.76105C23.0675 8.58745 22.9597 8.25549 22.6937 8.23417L22.3929 8.21005L22.0614 8.18348L22.0071 8.17912L15.3567 7.64597C15.2446 7.63698 15.1469 7.566 15.1037 7.46213L12.5415 1.30199L12.5206 1.25171L12.3929 0.944609L12.277 0.665992C12.1745 0.419604 11.8255 0.419604 11.723 0.665992L11.6071 0.944609L11.4794 1.25171ZM12 2.60397L9.81964 7.84616C9.63244 8.29627 9.20914 8.60381 8.72322 8.64277L3.06383 9.09648L7.37568 12.79C7.74591 13.1072 7.90759 13.6048 7.79448 14.079L6.47714 19.6016L11.3224 16.6421C11.7384 16.388 12.2616 16.388 12.6776 16.6421L17.5228 19.6016L16.2055 14.079C16.0924 13.6048 16.2541 13.1072 16.6243 12.79L20.9362 9.09648L15.2768 8.64277C14.7908 8.60381 14.3676 8.29627 14.1803 7.84616L12 2.60397Z" fill="#008CF4"/>
</svg>
