<svg width="40" height="40" viewBox="0 0 40 40" fill="none" xmlns="http://www.w3.org/2000/svg">
<path d="M0 8C0 3.58172 3.58172 0 8 0H32C36.4183 0 40 3.58172 40 8V32C40 36.4183 36.4183 40 32 40H8C3.58172 40 0 36.4183 0 32V8Z" fill="white" fill-opacity="0.1"/>
<path fill-rule="evenodd" clip-rule="evenodd" d="M14.1867 16.0395C15.0559 14.6694 16.8037 12.6934 19.92 12.6934C24.3371 12.6934 27.1467 16.3209 27.1467 19.92C27.1467 23.5191 24.3371 27.1467 19.92 27.1467C17.8094 27.1467 16.0493 26.3109 14.7961 25.0358C14.1256 24.3535 13.6022 23.5478 13.2454 22.6809C13.1053 22.3404 13.2677 21.9508 13.6082 21.8107C13.9487 21.6706 14.3383 21.833 14.4784 22.1735C14.7716 22.8859 15.2008 23.5454 15.747 24.1012C16.7596 25.1314 18.1811 25.8134 19.92 25.8134C23.5069 25.8134 25.8134 22.8802 25.8134 19.92C25.8134 16.9599 23.5069 14.0267 19.92 14.0267C17.1905 14.0267 15.7628 15.9357 15.0931 17.1201H16.72C17.0882 17.1201 17.3867 17.4185 17.3867 17.7867C17.3867 18.1549 17.0882 18.4534 16.72 18.4534H13.52C13.1518 18.4534 12.8533 18.1549 12.8533 17.7867V14.5867C12.8533 14.2185 13.1518 13.9201 13.52 13.9201C13.8882 13.9201 14.1867 14.2185 14.1867 14.5867V16.0395ZM19.2533 16.7201C19.2533 16.3519 19.5518 16.0534 19.92 16.0534C20.2882 16.0534 20.5867 16.3519 20.5867 16.7201V19.6439L22.5247 21.582C22.7851 21.8423 22.7851 22.2645 22.5247 22.5248C22.2644 22.7852 21.8423 22.7852 21.5819 22.5248L19.4486 20.3915C19.3236 20.2664 19.2533 20.0969 19.2533 19.9201V16.7201Z" fill="white"/>
<path d="M8 1H32V-1H8V1ZM39 8V32H41V8H39ZM32 39H8V41H32V39ZM1 32V8H-1V32H1ZM8 39C4.13401 39 1 35.866 1 32H-1C-1 36.9706 3.02944 41 8 41V39ZM39 32C39 35.866 35.866 39 32 39V41C36.9706 41 41 36.9706 41 32H39ZM32 1C35.866 1 39 4.13401 39 8H41C41 3.02944 36.9706 -1 32 -1V1ZM8 -1C3.02944 -1 -1 3.02944 -1 8H1C1 4.13401 4.13401 1 8 1V-1Z" fill="#FA00FF"/>
</svg>
