<svg width="130" height="130" viewBox="0 0 130 130" fill="none" xmlns="http://www.w3.org/2000/svg">
<g clip-path="url(#clip0_261_3064)">
<rect width="130" height="130" fill="#121213"/>
<mask id="mask0_261_3064" style="mask-type:alpha" maskUnits="userSpaceOnUse" x="0" y="4" width="130" height="130">
<path d="M0 4H130V134H0V4Z" fill="url(#paint0_linear_261_3064)"/>
</mask>
<g mask="url(#mask0_261_3064)">
<path d="M114.879 107.431C108.252 115.416 99.5425 121.41 89.7167 124.747C79.8909 128.084 69.3327 128.634 59.2134 126.335C49.094 124.037 39.8091 118.981 32.3885 111.727C24.9679 104.473 19.7018 95.3057 17.1741 85.2412C14.6465 75.1767 14.9563 64.6088 18.069 54.7096C21.1818 44.8105 26.9758 35.967 34.8085 29.1603C42.6412 22.3536 52.2063 17.8497 62.4429 16.1481C72.6795 14.4465 83.1873 15.6138 92.8008 19.5206" stroke="url(#paint1_linear_261_3064)" stroke-width="12.5394"/>
<path d="M96.8339 5.95369L75.404 78.8193L64.9999 74.912L96.8339 5.95369Z" fill="white"/>
<path d="M112.776 71.5591C112.776 94.2701 94.3647 112.681 71.6536 112.681C48.9425 112.681 30.5315 94.2701 30.5315 71.5591C30.5315 48.848 48.9425 30.437 71.6536 30.437C94.3647 30.437 112.776 48.848 112.776 71.5591Z" stroke="white" stroke-width="5.7874"/>
<path d="M72.0223 45.4567L70.118 37.7796L73.9266 37.7796L72.0223 45.4567Z" fill="white"/>
<path d="M95.3787 80.3814L103.552 78.4556L103.552 82.3071L95.3787 80.3814Z" fill="white"/>
<path d="M47.4705 80.2599L39.9213 82.3071L39.9213 78.2126L47.4705 80.2599Z" fill="white"/>
<path d="M50.5283 56.4737L43.8359 52.3666L46.4212 49.7813L50.5283 56.4737Z" fill="white"/>
<path d="M93.6326 57.9673L97.9198 50.9355L100.664 53.6801L93.6326 57.9673Z" fill="white"/>
</g>
<path d="M78.5307 91.6903C75.4589 91.6903 74.7244 93.9081 74.7244 98.7191V107.522C74.7244 112.333 75.4589 114.551 78.5307 114.551C80.8012 114.551 81.9698 112.947 82.504 111.719C82.504 112.333 82.6709 113.698 83.4055 114.21H87.2786C86.9447 113.118 86.9447 112.367 86.9447 110.934V86.9134H82.504V94.5223C81.9698 93.2939 80.8012 91.6903 78.5307 91.6903ZM79.1985 98.3438C79.1985 96.5354 79.6659 95.8871 80.8012 95.8871C81.9698 95.8871 82.504 96.6378 82.504 98.3779V107.863C82.504 109.604 81.9698 110.354 80.8012 110.354C79.6659 110.354 79.1985 109.706 79.1985 107.898V98.3438Z" fill="white"/>
<path d="M97.1764 99.7769C98.7456 99.0262 99.9142 97.559 99.9142 94.5223V94.1128C99.9142 88.7559 98.345 86.9134 92.8024 86.9134H88.0278V114.21H92.8024C98.4785 114.176 100.315 112.265 100.315 107.147V105.748C100.315 102.302 98.9126 100.596 97.1764 99.7769ZM95.4735 95.1023C95.4735 97.3884 94.8725 97.7638 92.8358 97.7638H92.4685V91.4514H92.8358C95.0728 91.4514 95.4735 91.8267 95.4735 94.1128V95.1023ZM92.8358 102.302C95.0728 102.302 95.8742 102.882 95.8742 105.168V106.84C95.8742 109.194 95.2064 109.672 92.8358 109.672H92.4685V102.302H92.8358Z" fill="white"/>
</g>
<defs>
<linearGradient id="paint0_linear_261_3064" x1="65" y1="4" x2="65" y2="134" gradientUnits="userSpaceOnUse">
<stop offset="0.497917"/>
<stop offset="0.789583" stop-opacity="0"/>
</linearGradient>
<linearGradient id="paint1_linear_261_3064" x1="97.2441" y1="9.1181" x2="14.3308" y2="104.315" gradientUnits="userSpaceOnUse">
<stop stop-color="#FA00FF"/>
<stop offset="0.40217" stop-color="#6F00D3"/>
<stop offset="0.542012" stop-color="#2300F4"/>
<stop offset="1" stop-color="#00F0FF"/>
</linearGradient>
<clipPath id="clip0_261_3064">
<rect width="130" height="130" fill="white"/>
</clipPath>
</defs>
</svg>
