<svg width="127" height="127" viewBox="0 0 127 127" fill="none" xmlns="http://www.w3.org/2000/svg">
<mask id="mask0_261_16878" style="mask-type:alpha" maskUnits="userSpaceOnUse" x="0" y="0" width="127" height="127">
<path d="M0 0H127V127H0V0Z" fill="url(#paint0_linear_261_16878)"/>
</mask>
<g mask="url(#mask0_261_16878)">
<path d="M111.939 100.804C105.509 108.552 97.0592 114.368 87.5257 117.605C77.9922 120.843 67.7482 121.376 57.9299 119.147C48.1117 116.917 39.103 112.011 31.9032 104.973C24.7034 97.9349 19.5939 89.0401 17.1415 79.275C14.6891 69.51 14.9896 59.2565 18.0097 49.6519C21.0299 40.0473 26.6515 31.467 34.2512 24.8628C41.8508 18.2586 51.1314 13.8886 61.0634 12.2377C70.9953 10.5867 81.1905 11.7193 90.518 15.5098" stroke="url(#paint1_linear_261_16878)" stroke-width="13"/>
<path d="M94.5993 1.90861L73.664 73.0927L63.5 69.2755L94.5993 1.90861Z" fill="white"/>
<circle cx="70" cy="66" r="40" stroke="white" stroke-width="6"/>
<path d="M70.3604 40.5L68.5 33L72.2207 33L70.3604 40.5Z" fill="white"/>
<path d="M93.1776 74.6187L101.162 72.7374L101.162 76.5L93.1776 74.6187Z" fill="white"/>
<path d="M46.375 74.5L39 76.5L39 72.5L46.375 74.5Z" fill="white"/>
<path d="M49.3622 51.2628L42.8243 47.2504L45.3499 44.7249L49.3622 51.2628Z" fill="white"/>
<path d="M91.4719 52.7219L95.6601 45.8523L98.3414 48.5336L91.4719 52.7219Z" fill="white"/>
</g>
<path d="M76.7185 85.6667C73.7176 85.6667 73 87.8333 73 92.5333V101.133C73 105.833 73.7176 108 76.7185 108C78.9366 108 80.0782 106.433 80.6001 105.233C80.6001 105.833 80.7632 107.167 81.4808 107.667H85.2645C84.9384 106.6 84.9384 105.867 84.9384 104.467V81H80.6001V88.4333C80.0782 87.2333 78.9366 85.6667 76.7185 85.6667ZM77.3709 92.1667C77.3709 90.4 77.8275 89.7667 78.9366 89.7667C80.0782 89.7667 80.6001 90.5 80.6001 92.2V101.467C80.6001 103.167 80.0782 103.9 78.9366 103.9C77.8275 103.9 77.3709 103.267 77.3709 101.5V92.1667Z" fill="white"/>
<path d="M94.9339 93.5667C96.4669 92.8333 97.6086 91.4 97.6086 88.4333V88.0333C97.6086 82.8 96.0755 81 90.6608 81H85.9964V107.667H90.6608C96.206 107.633 98 105.767 98 100.767V99.4C98 96.0333 96.63 94.3667 94.9339 93.5667ZM93.2703 89C93.2703 91.2333 92.6832 91.6 90.6935 91.6H90.3347V85.4333H90.6935C92.8789 85.4333 93.2703 85.8 93.2703 88.0333V89ZM90.6935 96.0333C92.8789 96.0333 93.6617 96.6 93.6617 98.8333V100.467C93.6617 102.767 93.0094 103.233 90.6935 103.233H90.3347V96.0333H90.6935Z" fill="white"/>
<defs>
<linearGradient id="paint0_linear_261_16878" x1="63.5" y1="0" x2="63.5" y2="127" gradientUnits="userSpaceOnUse">
<stop offset="0.497917"/>
<stop offset="0.789583" stop-opacity="0"/>
</linearGradient>
<linearGradient id="paint1_linear_261_16878" x1="95" y1="5" x2="14" y2="98" gradientUnits="userSpaceOnUse">
<stop stop-color="#FA00FF"/>
<stop offset="0.40217" stop-color="#6F00D3"/>
<stop offset="0.542012" stop-color="#2300F4"/>
<stop offset="1" stop-color="#00F0FF"/>
</linearGradient>
</defs>
</svg>
