<svg width="40" height="40" viewBox="0 0 40 40" fill="none" xmlns="http://www.w3.org/2000/svg">
<rect x="0.5" y="0.5" width="39" height="39" rx="7.5" fill="white" fill-opacity="0.1"/>
<path fill-rule="evenodd" clip-rule="evenodd" d="M20.5143 13.1905C20.2289 12.9098 19.7711 12.9098 19.4857 13.1905L12.2857 20.2732C11.997 20.5572 11.9932 21.0215 12.2772 21.3103C12.5612 21.599 13.0255 21.6028 13.3143 21.3188L14 20.6442V26.3533C14 26.7215 14.2985 27.02 14.6667 27.02H25.3333C25.7015 27.02 26 26.7215 26 26.3533V20.6442L26.6857 21.3188C26.9744 21.6028 27.4387 21.599 27.7228 21.3103C28.0068 21.0215 28.003 20.5572 27.7143 20.2732L20.5143 13.1905ZM15.3333 25.6867L15.3333 19.3326L20 14.742L24.6667 19.3326V25.6867H22.8V22.0867C22.8 21.7185 22.5015 21.42 22.1333 21.42H18.9333C18.5651 21.42 18.2667 21.7185 18.2667 22.0867V25.6867H15.3333ZM19.6 25.6867V22.7533H21.4667V25.6867H19.6Z" fill="white"/>
<rect x="0.5" y="0.5" width="39" height="39" rx="7.5" stroke="#FA00FF"/>
</svg>
