<svg width="40" height="40" viewBox="0 0 40 40" fill="none" xmlns="http://www.w3.org/2000/svg">
<path d="M0 8C0 3.58172 3.58172 0 8 0H32C36.4183 0 40 3.58172 40 8V32C40 36.4183 36.4183 40 32 40H8C3.58172 40 0 36.4183 0 32V8Z" fill="white" fill-opacity="0.1"/>
<mask id="path-2-inside-1_263_1049" fill="white">
<path fill-rule="evenodd" clip-rule="evenodd" d="M21.8334 13.6667C21.8334 13.1145 21.3857 12.6667 20.8334 12.6667H19.1667C18.6145 12.6667 18.1667 13.1145 18.1667 13.6667V14.5218C18.1667 14.6964 18.0555 14.8507 17.8943 14.9176V14.9176C17.733 14.9845 17.5462 14.9535 17.4228 14.83L16.8181 14.2254C16.4276 13.8349 15.7944 13.8349 15.4039 14.2254L14.2254 15.4039C13.8349 15.7944 13.8349 16.4276 14.2254 16.8181L14.83 17.4228C14.9535 17.5462 14.9845 17.733 14.9176 17.8943V17.8943C14.8507 18.0555 14.6964 18.1667 14.5218 18.1667H13.6667C13.1145 18.1667 12.6667 18.6145 12.6667 19.1667V20.8334C12.6667 21.3857 13.1145 21.8334 13.6667 21.8334H14.5219C14.6964 21.8334 14.8507 21.9446 14.9176 22.1058V22.1058C14.9845 22.2671 14.9535 22.4538 14.83 22.5773L14.2253 23.182C13.8347 23.5726 13.8347 24.2057 14.2253 24.5963L15.4038 25.7748C15.7943 26.1653 16.4275 26.1653 16.818 25.7748L17.4226 25.1701C17.5461 25.0466 17.7329 25.0156 17.8942 25.0825V25.0825C18.0555 25.1494 18.1667 25.3038 18.1667 25.4784V26.3334C18.1667 26.8857 18.6145 27.3334 19.1667 27.3334H20.8334C21.3857 27.3334 21.8334 26.8857 21.8334 26.3334V25.4783C21.8334 25.3038 21.9447 25.1494 22.1059 25.0825V25.0825C22.2672 25.0156 22.4539 25.0467 22.5774 25.1701L23.1821 25.7748C23.5726 26.1653 24.2058 26.1653 24.5963 25.7748L25.7748 24.5963C26.1653 24.2058 26.1653 23.5726 25.7748 23.1821L25.1701 22.5774C25.0466 22.4539 25.0156 22.2672 25.0825 22.1059V22.1059C25.1494 21.9447 25.3038 21.8334 25.4783 21.8334H26.3334C26.8857 21.8334 27.3334 21.3857 27.3334 20.8334V19.1667C27.3334 18.6145 26.8857 18.1667 26.3334 18.1667H25.4784C25.3038 18.1667 25.1494 18.0555 25.0825 17.8942V17.8942C25.0156 17.7329 25.0466 17.5461 25.1701 17.4226L25.7747 16.8181C26.1652 16.4276 26.1652 15.7944 25.7747 15.4039L24.5962 14.2254C24.2056 13.8348 23.5725 13.8348 23.1819 14.2254L22.5773 14.83C22.4538 14.9535 22.2671 14.9845 22.1058 14.9176V14.9176C21.9446 14.8507 21.8334 14.6964 21.8334 14.5219V13.6667ZM20.0001 21.3334C20.7365 21.3334 21.3334 20.7365 21.3334 20.0001C21.3334 19.2637 20.7365 18.6667 20.0001 18.6667C19.2637 18.6667 18.6667 19.2637 18.6667 20.0001C18.6667 20.7365 19.2637 21.3334 20.0001 21.3334Z"/>
</mask>
<path d="M22.5773 14.83L23.2844 15.5371L22.5773 14.83ZM24.5962 14.2254L25.3033 13.5182L24.5962 14.2254ZM23.1819 14.2254L22.4748 13.5182L23.1819 14.2254ZM25.7747 15.4039L25.0676 16.111L25.7747 15.4039ZM25.1701 17.4226L25.8772 18.1297L25.1701 17.4226ZM17.4226 25.1701L18.1297 25.8772L17.4226 25.1701ZM14.83 22.5773L15.5371 23.2844L14.83 22.5773ZM14.83 17.4228L14.1229 18.1299L14.83 17.4228ZM14.2254 15.4039L13.5183 14.6968L14.2254 15.4039ZM15.4039 14.2254L14.6968 13.5183L15.4039 14.2254ZM19.1667 13.6667H20.8334V11.6667H19.1667V13.6667ZM19.1667 14.5218V13.6667L17.1667 13.6667V14.5218L19.1667 14.5218ZM16.111 14.9325L16.7156 15.5371L18.1299 14.1229L17.5252 13.5183L16.111 14.9325ZM14.9325 16.111L16.111 14.9325L14.6968 13.5183L13.5183 14.6968L14.9325 16.111ZM15.5371 16.7157L14.9325 16.111L13.5183 17.5252L14.1229 18.1299L15.5371 16.7157ZM13.6667 19.1667H14.5218L14.5218 17.1667H13.6667L13.6667 19.1667ZM13.6667 20.8334L13.6667 19.1667H11.6667L11.6667 20.8334H13.6667ZM14.5219 20.8334H13.6667V22.8334H14.5219V20.8334ZM14.9324 23.8891L15.5371 23.2844L14.1229 21.8702L13.5181 22.4749L14.9324 23.8891ZM16.1109 25.0677L14.9324 23.8891L13.5181 25.3034L14.6967 26.4819L16.1109 25.0677ZM16.7155 24.463L16.1109 25.0677L17.5251 26.4819L18.1297 25.8772L16.7155 24.463ZM19.1667 26.3334V25.4784H17.1667V26.3334H19.1667ZM20.8334 26.3334H19.1667L19.1667 28.3334H20.8334V26.3334ZM20.8334 25.4783V26.3334H22.8334V25.4783H20.8334ZM23.8892 25.0677L23.2845 24.463L21.8703 25.8772L22.475 26.4819L23.8892 25.0677ZM25.0677 23.8892L23.8892 25.0677L25.3034 26.4819L26.4819 25.3034L25.0677 23.8892ZM24.463 23.2845L25.0677 23.8892L26.4819 22.475L25.8772 21.8703L24.463 23.2845ZM26.3334 20.8334H25.4783V22.8334H26.3334V20.8334ZM26.3334 19.1667V20.8334H28.3334V19.1667L26.3334 19.1667ZM25.4784 19.1667H26.3334V17.1667H25.4784V19.1667ZM25.0676 16.111L24.463 16.7155L25.8772 18.1297L26.4818 17.5252L25.0676 16.111ZM23.889 14.9325L25.0676 16.111L26.4818 14.6968L25.3033 13.5182L23.889 14.9325ZM23.2844 15.5371L23.889 14.9325L22.4748 13.5182L21.8702 14.1229L23.2844 15.5371ZM20.8334 13.6667V14.5219H22.8334V13.6667H20.8334ZM20.3334 20.0001C20.3334 20.1842 20.1842 20.3334 20.0001 20.3334V22.3334C21.2887 22.3334 22.3334 21.2887 22.3334 20.0001H20.3334ZM20.0001 19.6667C20.1842 19.6667 20.3334 19.816 20.3334 20.0001H22.3334C22.3334 18.7114 21.2887 17.6667 20.0001 17.6667V19.6667ZM19.6667 20.0001C19.6667 19.816 19.816 19.6667 20.0001 19.6667V17.6667C18.7114 17.6667 17.6667 18.7114 17.6667 20.0001H19.6667ZM20.0001 20.3334C19.816 20.3334 19.6667 20.1842 19.6667 20.0001H17.6667C17.6667 21.2887 18.7114 22.3334 20.0001 22.3334V20.3334ZM22.489 13.9939C22.6708 14.0693 22.8334 14.2602 22.8334 14.5219H20.8334C20.8334 15.1326 21.2185 15.6321 21.7227 15.8413L22.489 13.9939ZM21.8702 14.1229C22.0528 13.9403 22.3033 13.9169 22.489 13.9939L21.7227 15.8413C22.2309 16.0521 22.8548 15.9667 23.2844 15.5371L21.8702 14.1229ZM25.3033 13.5182C24.5222 12.7372 23.2559 12.7372 22.4748 13.5182L23.889 14.9325L25.3033 13.5182ZM26.4818 17.5252C27.2628 16.7441 27.2628 15.4778 26.4818 14.6968L25.0676 16.111L25.0676 16.111L26.4818 17.5252ZM26.0062 17.5111C26.0832 17.6967 26.0599 17.9471 25.8772 18.1297L24.463 16.7155C24.0334 17.1451 23.948 17.7691 24.1588 18.2774L26.0062 17.5111ZM25.4784 17.1667C25.74 17.1667 25.9308 17.3293 26.0062 17.5111L24.1588 18.2774C24.368 18.7817 24.8676 19.1667 25.4784 19.1667V17.1667ZM28.3334 19.1667C28.3334 18.0622 27.438 17.1667 26.3334 17.1667V19.1667L28.3334 19.1667ZM26.3334 22.8334C27.438 22.8334 28.3334 21.938 28.3334 20.8334H26.3334V22.8334ZM26.0062 22.489C25.9308 22.6709 25.74 22.8334 25.4783 22.8334V20.8334C24.8676 20.8334 24.368 21.2185 24.1589 21.7227L26.0062 22.489ZM25.8772 21.8703C26.0599 22.0529 26.0832 22.3034 26.0062 22.489L24.1589 21.7227C23.948 22.231 24.0334 22.8549 24.463 23.2845L25.8772 21.8703ZM26.4819 25.3034C27.263 24.5224 27.263 23.256 26.4819 22.475L25.0677 23.8892V23.8892L26.4819 25.3034ZM22.475 26.4819C23.256 27.263 24.5224 27.263 25.3034 26.4819L23.8892 25.0677L23.8892 25.0677L22.475 26.4819ZM22.489 26.0062C22.3034 26.0832 22.0529 26.0599 21.8703 25.8772L23.2845 24.463C22.8549 24.0334 22.231 23.948 21.7227 24.1589L22.489 26.0062ZM22.8334 25.4783C22.8334 25.74 22.6709 25.9308 22.489 26.0062L21.7227 24.1589C21.2185 24.368 20.8334 24.8676 20.8334 25.4783H22.8334ZM20.8334 28.3334C21.938 28.3334 22.8334 27.438 22.8334 26.3334H20.8334V28.3334ZM17.1667 26.3334C17.1667 27.438 18.0622 28.3334 19.1667 28.3334L19.1667 26.3334H19.1667H17.1667ZM17.5111 26.0062C17.3293 25.9308 17.1667 25.74 17.1667 25.4784H19.1667C19.1667 24.8676 18.7817 24.368 18.2774 24.1588L17.5111 26.0062ZM18.1297 25.8772C17.9471 26.0599 17.6967 26.0832 17.5111 26.0062L18.2774 24.1588C17.7691 23.948 17.1451 24.0334 16.7155 24.463L18.1297 25.8772ZM14.6967 26.4819C15.4777 27.2629 16.744 27.2629 17.5251 26.4819L16.1109 25.0677L14.6967 26.4819ZM13.5181 22.4749C12.7371 23.256 12.7371 24.5223 13.5181 25.3034L14.9324 23.8891L14.9324 23.8891L13.5181 22.4749ZM13.9939 22.489C13.9169 22.3033 13.9403 22.0528 14.1229 21.8702L15.5371 23.2844C15.9667 22.8548 16.0521 22.2309 15.8413 21.7227L13.9939 22.489ZM14.5219 22.8334C14.2602 22.8334 14.0693 22.6708 13.9939 22.489L15.8413 21.7227C15.6321 21.2185 15.1326 20.8334 14.5219 20.8334V22.8334ZM11.6667 20.8334C11.6667 21.938 12.5622 22.8334 13.6667 22.8334V20.8334H13.6667H11.6667ZM13.6667 17.1667C12.5622 17.1667 11.6667 18.0622 11.6667 19.1667H13.6667L13.6667 19.1667L13.6667 17.1667ZM13.9939 17.5112C14.0694 17.3293 14.2602 17.1667 14.5218 17.1667L14.5218 19.1667C15.1326 19.1667 15.6321 18.7817 15.8413 18.2774L13.9939 17.5112ZM14.1229 18.1299C13.9403 17.9472 13.9169 17.6968 13.9939 17.5112L15.8413 18.2774C16.0521 17.7692 15.9667 17.1453 15.5371 16.7157L14.1229 18.1299ZM13.5183 14.6968C12.7372 15.4779 12.7372 16.7442 13.5183 17.5252L14.9325 16.111H14.9325L13.5183 14.6968ZM17.5252 13.5183C16.7442 12.7373 15.4779 12.7373 14.6968 13.5183L16.111 14.9325L16.111 14.9325L17.5252 13.5183ZM17.5111 13.9939C17.6968 13.9169 17.9472 13.9403 18.1299 14.1229L16.7156 15.5371C17.1452 15.9667 17.7692 16.0521 18.2774 15.8413L17.5111 13.9939ZM17.1667 14.5218C17.1667 14.2602 17.3293 14.0694 17.5111 13.9939L18.2774 15.8413C18.7817 15.6321 19.1667 15.1326 19.1667 14.5218L17.1667 14.5218ZM20.8334 13.6667H20.8334H22.8334C22.8334 12.5622 21.938 11.6667 20.8334 11.6667V13.6667ZM19.1667 11.6667C18.0622 11.6667 17.1667 12.5622 17.1667 13.6667L19.1667 13.6667V11.6667Z" fill="white" mask="url(#path-2-inside-1_263_1049)"/>
</svg>
