<svg width="40" height="40" viewBox="0 0 40 40" fill="none" xmlns="http://www.w3.org/2000/svg">
<path d="M0 8C0 3.58172 3.58172 0 8 0H32C36.4183 0 40 3.58172 40 8V32C40 36.4183 36.4183 40 32 40H8C3.58172 40 0 36.4183 0 32V8Z" fill="white" fill-opacity="0.1"/>
<path fill-rule="evenodd" clip-rule="evenodd" d="M13.175 20.1411C13.175 16.2939 16.2939 13.175 20.1411 13.175C23.9883 13.175 27.1071 16.2939 27.1071 20.1411C27.1071 23.9883 23.9883 27.1071 20.1411 27.1071C16.2939 27.1071 13.175 23.9883 13.175 20.1411ZM20.1411 14.125C16.8185 14.125 14.125 16.8185 14.125 20.1411C14.125 23.4636 16.8185 26.1571 20.1411 26.1571C23.4636 26.1571 26.1571 23.4636 26.1571 20.1411C26.1571 16.8185 23.4636 14.125 20.1411 14.125ZM20.801 23.4408C20.801 23.8053 20.5055 24.1007 20.1411 24.1007C19.7766 24.1007 19.4812 23.8053 19.4812 23.4408C19.4812 23.0764 19.7766 22.781 20.1411 22.781C20.5055 22.781 20.801 23.0764 20.801 23.4408ZM18.5795 18.8216C18.5795 18.0879 19.212 17.3919 20.1412 17.3919C21.0703 17.3919 21.7028 18.0879 21.7028 18.8216C21.7028 19.3573 21.4049 19.6302 20.9114 19.93C20.8554 19.964 20.7913 20.0013 20.723 20.0409L20.723 20.0409L20.723 20.0409C20.53 20.153 20.3037 20.2844 20.1331 20.4174C19.8802 20.6144 19.5912 20.9282 19.5912 21.4084C19.5912 21.7121 19.8374 21.9584 20.1412 21.9584C20.4449 21.9584 20.6912 21.7121 20.6912 21.4084L20.6911 21.4074C20.6908 21.4059 20.6907 21.4046 20.6965 21.3954C20.7082 21.3769 20.7383 21.3404 20.8091 21.2851C20.9179 21.2004 21.0399 21.1297 21.2003 21.0367C21.283 20.9888 21.3759 20.9349 21.4825 20.8701C22.0449 20.5285 22.8028 19.97 22.8028 18.8216C22.8028 17.4437 21.6404 16.2919 20.1412 16.2919C18.6419 16.2919 17.4795 17.4437 17.4795 18.8216C17.4795 19.1254 17.7257 19.3716 18.0295 19.3716C18.3333 19.3716 18.5795 19.1254 18.5795 18.8216Z" fill="white"/>
</svg>
