<svg width="41" height="41" viewBox="0 0 41 41" fill="none" xmlns="http://www.w3.org/2000/svg">
<path d="M0.5 20.3998C0.5 9.35415 9.45431 0.399841 20.5 0.399841C31.5457 0.399841 40.5 9.35415 40.5 20.3998C40.5 31.4455 31.5457 40.3998 20.5 40.3998C9.45431 40.3998 0.5 31.4455 0.5 20.3998Z" fill="white" fill-opacity="0.1"/>
<path fill-rule="evenodd" clip-rule="evenodd" d="M13.6352 20.159C13.6352 23.894 16.347 26.4363 19.3807 26.9616C19.5908 26.998 19.7316 27.1978 19.6953 27.4079C19.6589 27.618 19.4591 27.7588 19.249 27.7224C15.8944 27.1416 12.863 24.3175 12.863 20.159C12.863 18.4136 13.6558 17.0349 14.6008 15.9715C15.3909 15.0825 16.3117 14.3892 16.9876 13.8803L16.9876 13.8803L16.9881 13.88C17.0729 13.8161 17.1538 13.7551 17.2302 13.6971L14.6121 13.6971C14.4076 13.6971 14.2417 13.5313 14.2417 13.3267C14.2417 13.1222 14.4076 12.9563 14.6121 12.9563L18.1677 12.9563C18.3722 12.9563 18.538 13.1222 18.538 13.3267L18.538 16.8823C18.538 17.0868 18.3722 17.2526 18.1677 17.2526C17.9631 17.2526 17.7973 17.0868 17.7973 16.8823L17.7973 14.2354C17.6848 14.322 17.5645 14.4127 17.4382 14.5079L17.4381 14.508C16.7609 15.0185 15.9118 15.6587 15.1779 16.4845C14.3084 17.4628 13.6352 18.6666 13.6352 20.159ZM27.2631 20.6407C27.2631 16.9453 24.6087 14.4177 21.614 13.8555C21.4044 13.8162 21.2664 13.6144 21.3058 13.4048C21.3451 13.1953 21.5469 13.0573 21.7565 13.0966C25.068 13.7183 28.0352 16.5267 28.0352 20.6407C28.0352 22.3861 27.2425 23.7648 26.2975 24.8282C25.5073 25.7172 24.5865 26.4105 23.9107 26.9194L23.9105 26.9195C23.8255 26.9835 23.7445 27.0445 23.668 27.1026L26.2862 27.1026C26.4907 27.1026 26.6565 27.2685 26.6565 27.473C26.6565 27.6776 26.4907 27.8434 26.2862 27.8434L22.7306 27.8434C22.5261 27.8434 22.3602 27.6776 22.3602 27.473L22.3602 23.9175C22.3602 23.7129 22.5261 23.5471 22.7306 23.5471C22.9352 23.5471 23.101 23.7129 23.101 23.9175L23.101 26.5642C23.2135 26.4777 23.3338 26.3869 23.4601 26.2917C24.1374 25.7812 24.9864 25.141 25.7203 24.3152C26.5898 23.3369 27.2631 22.1331 27.2631 20.6407Z" fill="white"/>
</svg>
